M48
; DRILL file {KiCad (6.0.1-0)} date Thursday, November 03, 2022 at 08:07:33 PM
; FORMAT={-:-/ absolute / inch / decimal}
; #@! TF.CreationDate,2022-11-03T20:07:33-07:00
; #@! TF.GenerationSoftware,Kicad,Pcbnew,(6.0.1-0)
; #@! TF.FileFunction,Plated,1,4,PTH
FMAT,2
INCH
; #@! TA.AperFunction,Plated,PTH,ComponentDrill
T1C0.0080
; #@! TA.AperFunction,Plated,PTH,ViaDrill
T2C0.0120
; #@! TA.AperFunction,Plated,PTH,ViaDrill
T3C0.0240
; #@! TA.AperFunction,Plated,PTH,ComponentDrill
T4C0.0300
; #@! TA.AperFunction,Plated,PTH,ComponentDrill
T5C0.0394
; #@! TA.AperFunction,Plated,PTH,ComponentDrill
T6C0.0409
; #@! TA.AperFunction,Plated,PTH,ComponentDrill
T7C0.0500
; #@! TA.AperFunction,Plated,PTH,ComponentDrill
T8C0.0787
; #@! TA.AperFunction,Plated,PTH,ComponentDrill
T9C0.1181
; #@! TA.AperFunction,Plated,PTH,ComponentDrill
T10C0.1800
%
G90
G05
T1
X6.2632Y-10.8144
X6.2632Y-10.8656
X6.3144Y-10.8144
X6.3144Y-10.8656
X6.3656Y-10.8144
X6.3656Y-10.8656
X6.4168Y-10.8144
X6.4168Y-10.8656
X7.4232Y-10.8144
X7.4232Y-10.8656
X7.4744Y-10.8144
X7.4744Y-10.8656
X7.5256Y-10.8144
X7.5256Y-10.8656
X7.5768Y-10.8144
X7.5768Y-10.8656
T2
X5.0Y-8.795
X5.12Y-8.915
X5.665Y-10.91
X5.665Y-10.97
X5.68Y-9.6
X5.72Y-10.91
X5.72Y-10.97
X5.78Y-10.91
X5.78Y-10.97
X5.935Y-11.04
X5.935Y-11.085
X5.96Y-9.85
X5.96Y-9.9
X5.995Y-11.04
X5.995Y-11.085
X6.055Y-11.04
X6.055Y-11.085
X6.115Y-11.04
X6.115Y-11.085
X6.175Y-11.04
X6.175Y-11.085
X6.19Y-10.74
X6.2Y-10.1988
X6.26Y-10.1988
X6.26Y-11.02
X6.42Y-8.84
X6.61Y-6.9479
X6.65Y-6.9479
X6.69Y-6.9479
X6.72Y-8.87
X6.81Y-9.16
X6.825Y-10.91
X6.825Y-10.97
X6.86Y-9.16
X6.88Y-10.91
X6.88Y-10.97
X6.9Y-9.21
X6.94Y-10.91
X6.94Y-10.97
X6.95Y-9.21
X7.03Y-9.49
X7.03Y-9.78
X7.07Y-9.49
X7.07Y-9.78
X7.095Y-11.04
X7.095Y-11.085
X7.11Y-9.49
X7.11Y-9.78
X7.15Y-9.49
X7.15Y-9.78
X7.155Y-11.04
X7.155Y-11.085
X7.16Y-6.75
X7.19Y-9.49
X7.19Y-9.78
X7.2Y-6.75
X7.215Y-11.04
X7.215Y-11.085
X7.23Y-9.49
X7.23Y-9.78
X7.24Y-6.75
X7.275Y-11.04
X7.275Y-11.085
X7.28Y-6.75
X7.335Y-11.04
X7.335Y-11.085
X7.35Y-10.74
X7.42Y-11.02
X7.4797Y-8.8197
X7.4797Y-8.8597
X7.4797Y-8.8997
X7.4797Y-8.9397
X7.4797Y-8.9797
X7.4797Y-9.0197
X7.64Y-9.31
X7.65Y-9.27
X7.68Y-6.18
X7.73Y-6.25
X7.81Y-8.82
X7.81Y-9.49
X7.8452Y-10.0303
X7.85Y-8.82
X7.85Y-9.52
X7.8852Y-10.2203
X7.8852Y-10.2803
X7.8852Y-10.3303
X7.8852Y-10.3803
X7.8852Y-10.4303
X7.8852Y-10.4803
X7.89Y-8.82
X7.89Y-9.55
X7.93Y-8.82
X7.93Y-9.575
X7.97Y-8.82
X7.97Y-9.62
X7.975Y-6.67
X7.975Y-6.78
X7.975Y-6.89
X7.975Y-7.0
X7.9752Y-10.1003
X7.9752Y-10.1503
X8.01Y-8.82
X8.01Y-9.65
X8.03Y-7.99
X8.03Y-8.1
X8.03Y-8.21
X8.03Y-8.32
X8.05Y-8.82
X8.05Y-9.68
X8.09Y-8.82
X8.09Y-9.71
X8.1695Y-8.7395
X8.17Y-9.74
X8.1705Y-8.6195
X8.1705Y-8.6595
X8.1705Y-8.6995
X8.171Y-8.579
X8.1715Y-8.5385
X8.172Y-8.498
X8.1721Y-8.4574
X8.1952Y-10.4603
X8.2Y-9.77
X8.24Y-9.8
X8.28Y-9.83
X8.2852Y-10.5003
X8.32Y-9.86
X8.36Y-9.89
X8.4Y-9.92
X8.4252Y-10.5903
X8.4352Y-10.7003
X8.44Y-9.95
X8.4752Y-10.5603
X8.491Y-7.598
X8.52Y-7.769
X8.549Y-7.94
X8.5652Y-10.5903
X8.5652Y-10.7803
X8.569Y-8.12
X8.69Y-10.82
X8.8552Y-10.5903
X8.8552Y-10.6603
X8.8552Y-10.7403
X9.2452Y-10.0303
X9.2852Y-10.2203
X9.2852Y-10.2803
X9.2852Y-10.3303
X9.2852Y-10.3803
X9.2852Y-10.4303
X9.2852Y-10.4803
X9.3752Y-10.1003
X9.3752Y-10.1503
X9.5952Y-10.4603
X9.6852Y-10.5003
X9.8252Y-10.5903
X9.8352Y-10.7003
X9.8752Y-10.5603
X9.9652Y-10.5903
X9.9652Y-10.7803
X10.09Y-10.82
X10.2552Y-10.5903
X10.2552Y-10.6603
X10.2552Y-10.7403
X10.6452Y-10.0303
X10.6852Y-10.2203
X10.6852Y-10.2803
X10.6852Y-10.3303
X10.6852Y-10.3803
X10.6852Y-10.4303
X10.6852Y-10.4803
X10.7752Y-10.1003
X10.7752Y-10.1503
X10.9952Y-10.4603
X11.0852Y-10.5003
X11.2252Y-10.5903
X11.2352Y-10.7003
X11.2752Y-10.5603
X11.3652Y-10.5903
X11.3652Y-10.7803
X11.5Y-10.82
X11.6552Y-10.5903
X11.6552Y-10.6603
X11.6552Y-10.7403
X12.0452Y-10.0303
X12.0852Y-10.2203
X12.0852Y-10.2803
X12.0852Y-10.3303
X12.0852Y-10.3803
X12.0852Y-10.4303
X12.0852Y-10.4803
X12.1752Y-10.1003
X12.1752Y-10.1503
X12.3952Y-10.4603
X12.4852Y-10.5003
X12.6252Y-10.5903
X12.6352Y-10.7003
X12.6752Y-10.5603
X12.7652Y-10.5903
X12.7652Y-10.7803
X12.89Y-10.82
X13.0552Y-10.5903
X13.0552Y-10.6603
X13.0552Y-10.7403
X13.4452Y-10.0303
X13.4852Y-10.2203
X13.4852Y-10.2803
X13.4852Y-10.3303
X13.4852Y-10.3803
X13.4852Y-10.4303
X13.4852Y-10.4803
X13.5752Y-10.1003
X13.5752Y-10.1503
X13.7952Y-10.4603
X13.8852Y-10.5003
X14.0252Y-10.5903
X14.0352Y-10.7003
X14.0752Y-10.5603
X14.1652Y-10.5903
X14.1652Y-10.7803
X14.29Y-10.82
X14.4552Y-10.5903
X14.4552Y-10.6603
X14.4552Y-10.7403
X14.8452Y-10.0303
X14.8852Y-10.2203
X14.8852Y-10.2803
X14.8852Y-10.3303
X14.8852Y-10.3803
X14.8852Y-10.4303
X14.8852Y-10.4803
X14.9752Y-10.1003
X14.9752Y-10.1503
X15.1952Y-10.4603
X15.2852Y-10.5003
X15.4252Y-10.5903
X15.4352Y-10.7003
X15.4752Y-10.5603
X15.5652Y-10.5903
X15.5652Y-10.7803
X15.69Y-10.82
X15.8552Y-10.5903
X15.8552Y-10.6603
X15.8552Y-10.7403
X16.2452Y-10.0303
X16.2852Y-10.2203
X16.2852Y-10.2803
X16.2852Y-10.3303
X16.2852Y-10.3803
X16.2852Y-10.4303
X16.2852Y-10.4803
X16.3752Y-10.1003
X16.3752Y-10.1503
X16.5952Y-10.4603
X16.6852Y-10.5003
X16.8252Y-10.5903
X16.8352Y-10.7003
X16.8752Y-10.5603
X16.9652Y-10.5903
X16.9652Y-10.7803
X17.09Y-10.82
X17.2552Y-10.5903
X17.2552Y-10.6603
X17.2552Y-10.7403
X17.645Y-10.03
X17.685Y-10.22
X17.685Y-10.28
X17.685Y-10.33
X17.685Y-10.38
X17.685Y-10.43
X17.685Y-10.48
X17.775Y-10.1
X17.775Y-10.15
X17.995Y-10.46
X18.085Y-10.5
X18.225Y-10.59
X18.235Y-10.7
X18.275Y-10.56
X18.365Y-10.59
X18.365Y-10.78
X18.49Y-10.82
X18.655Y-10.59
X18.655Y-10.66
X18.655Y-10.74
T3
X5.32Y-5.93
X5.55Y-5.645
X5.62Y-5.93
X5.85Y-5.645
X5.92Y-5.93
X6.09Y-9.95
X6.15Y-5.645
X6.22Y-5.93
X6.45Y-5.645
X6.49Y-6.65
X6.52Y-5.93
X6.64Y-7.08
X6.75Y-5.645
X6.82Y-5.93
X6.84Y-9.79
X7.05Y-5.645
X7.12Y-5.93
X7.35Y-5.645
X7.42Y-5.93
X8.175Y-6.55
X8.22Y-6.175
X8.43Y-6.41
X8.58Y-11.02
X8.84Y-11.015
X9.05Y-10.54
X9.05Y-10.62
X9.05Y-10.7
X9.05Y-10.78
X9.06Y-11.02
X9.98Y-11.02
X10.24Y-11.015
X10.45Y-10.54
X10.45Y-10.62
X10.45Y-10.7
X10.45Y-10.78
X10.46Y-11.02
X11.38Y-11.02
X11.64Y-11.015
X11.85Y-10.54
X11.85Y-10.62
X11.85Y-10.7
X11.85Y-10.78
X11.86Y-11.02
X12.78Y-11.02
X13.04Y-11.015
X13.25Y-10.54
X13.25Y-10.62
X13.25Y-10.7
X13.25Y-10.78
X13.26Y-11.02
X14.18Y-11.02
X14.44Y-11.015
X14.65Y-10.54
X14.65Y-10.62
X14.65Y-10.7
X14.65Y-10.78
X14.66Y-11.02
X15.58Y-11.02
X15.84Y-11.015
X16.05Y-10.54
X16.05Y-10.62
X16.05Y-10.7
X16.05Y-10.78
X16.06Y-11.02
X16.98Y-11.02
X17.24Y-11.015
X17.45Y-10.54
X17.45Y-10.62
X17.45Y-10.7
X17.45Y-10.78
X17.46Y-11.02
X18.38Y-11.02
X18.64Y-11.015
X18.85Y-10.54
X18.85Y-10.62
X18.85Y-10.7
X18.85Y-10.78
X18.86Y-11.02
T4
X6.25Y-6.29
X6.25Y-6.39
X6.25Y-6.49
X6.25Y-6.59
X6.25Y-6.69
X6.25Y-6.79
X6.25Y-6.89
X6.25Y-6.99
X6.25Y-7.44
X6.25Y-7.54
X6.25Y-7.64
X6.25Y-7.74
X6.25Y-7.84
X6.25Y-7.94
X6.25Y-8.04
X6.25Y-8.14
T5
X4.72Y-9.79
X4.72Y-9.89
X4.72Y-9.99
X5.1Y-5.69
X5.1Y-5.79
X5.1Y-5.89
X5.11Y-9.79
X5.11Y-9.89
X5.31Y-9.79
X5.31Y-9.89
T6
X5.108Y-8.5
X5.108Y-9.5
X5.208Y-8.5
X5.208Y-9.5
X5.308Y-8.5
X5.308Y-9.5
X5.408Y-8.5
X5.408Y-9.5
X5.508Y-8.5
X5.508Y-9.5
X5.608Y-8.5
X5.608Y-9.5
X5.708Y-8.5
X5.708Y-9.5
X5.808Y-8.5
X5.808Y-9.5
X5.908Y-8.5
X5.908Y-9.5
X6.008Y-8.5
X6.008Y-9.5
X6.108Y-8.5
X6.108Y-9.5
X6.208Y-8.5
X6.208Y-9.5
X6.308Y-8.5
X6.308Y-9.5
X6.408Y-8.5
X6.408Y-9.5
X6.4607Y-7.556
X6.4607Y-8.256
X6.508Y-8.5
X6.508Y-9.5
X6.5607Y-7.556
X6.5607Y-8.256
X6.608Y-8.5
X6.608Y-9.5
X6.6607Y-7.556
X6.6607Y-8.256
X6.708Y-8.5
X6.708Y-9.5
X6.7607Y-7.556
X6.7607Y-8.256
X6.808Y-8.5
X6.808Y-9.5
X6.8528Y-6.3874
X6.8528Y-6.4874
X6.8528Y-6.5874
X6.8528Y-6.6874
X6.8528Y-6.7874
X6.8528Y-6.8874
X6.8528Y-6.9874
X6.8528Y-7.0874
X6.8528Y-7.1874
X6.8528Y-7.2874
X6.8607Y-7.556
X6.8607Y-8.256
X6.908Y-8.5
X6.908Y-9.5
X6.9607Y-7.556
X6.9607Y-8.256
X7.0028Y-6.1474
X7.0607Y-7.556
X7.0607Y-8.256
X7.1028Y-6.1474
X7.1607Y-7.556
X7.1607Y-8.256
X7.2028Y-6.1474
X7.2607Y-7.556
X7.2607Y-8.256
X7.3028Y-6.1474
X7.3607Y-7.556
X7.3607Y-8.256
X7.4028Y-6.1474
X7.4607Y-7.556
X7.4607Y-8.256
X7.5528Y-6.3874
X7.5528Y-6.4874
X7.5528Y-6.5874
X7.5528Y-6.6874
X7.5528Y-6.7874
X7.5528Y-6.8874
X7.5528Y-6.9874
X7.5528Y-7.0874
X7.5528Y-7.1874
X7.5528Y-7.2874
X7.5607Y-7.556
X7.5607Y-8.256
T7
X5.6796Y-10.1062
X5.78Y-10.1062
X5.8804Y-10.1062
X6.8396Y-10.1062
X6.94Y-10.1062
X7.0404Y-10.1062
T8
X9.35Y-6.07
X9.35Y-6.27
X9.35Y-6.47
X9.35Y-6.67
X9.35Y-6.87
X9.35Y-7.07
X9.35Y-7.27
X9.35Y-7.47
X9.35Y-7.67
X9.35Y-7.87
X9.35Y-8.07
X9.35Y-8.27
X9.35Y-8.47
X9.35Y-8.67
T9
X4.75Y-5.7
X4.75Y-11.3
X9.35Y-5.7
X9.35Y-9.3
X10.75Y-9.3
X12.15Y-9.3
X13.55Y-9.3
X14.95Y-9.3
X16.35Y-9.3
X17.75Y-9.3
X19.15Y-9.3
X19.15Y-11.3
T10
X5.2033Y-10.96
X5.22Y-11.24
T0
M30
