%TF.GenerationSoftware,KiCad,Pcbnew,(6.0.1-0)*%
%TF.CreationDate,2022-11-01T14:26:45-07:00*%
%TF.ProjectId,core_board,636f7265-5f62-46f6-9172-642e6b696361,rev?*%
%TF.SameCoordinates,Original*%
%TF.FileFunction,Soldermask,Bot*%
%TF.FilePolarity,Negative*%
%FSLAX46Y46*%
G04 Gerber Fmt 4.6, Leading zero omitted, Abs format (unit mm)*
G04 Created by KiCad (PCBNEW (6.0.1-0)) date 2022-11-01 14:26:45*
%MOMM*%
%LPD*%
G01*
G04 APERTURE LIST*
%ADD10C,0.508000*%
%ADD11C,6.000000*%
%ADD12C,1.270000*%
%ADD13R,1.910000X1.910000*%
%ADD14C,1.910000*%
%ADD15C,3.000000*%
%ADD16R,1.700000X1.700000*%
%ADD17O,1.700000X1.700000*%
%ADD18C,1.524000*%
%ADD19R,1.560000X1.560000*%
%ADD20C,1.560000*%
%ADD21C,6.451600*%
G04 APERTURE END LIST*
D10*
%TO.C,U9*%
X159086000Y-275986000D03*
X159086000Y-274686000D03*
X160386000Y-275986000D03*
X160386000Y-274686000D03*
X161686000Y-275986000D03*
X161686000Y-274686000D03*
X162986000Y-275986000D03*
X162986000Y-274686000D03*
%TD*%
D11*
%TO.C,REF\u002A\u002A*%
X415290000Y-236220000D03*
%TD*%
D12*
%TO.C,J10*%
X472456000Y-285144600D03*
X473456000Y-263444600D03*
%TD*%
D13*
%TO.C,U3*%
X149362000Y-256697000D03*
D14*
X146812000Y-256697000D03*
X144262000Y-256697000D03*
%TD*%
D15*
%TO.C,TP8*%
X237490000Y-204978000D03*
%TD*%
D16*
%TO.C,J2*%
X130048000Y-258841000D03*
D17*
X130048000Y-261381000D03*
X130048000Y-263921000D03*
%TD*%
D15*
%TO.C,TP16*%
X237490000Y-220218000D03*
%TD*%
D18*
%TO.C,U4*%
X158750000Y-159766000D03*
X158750000Y-162306000D03*
X158750000Y-164846000D03*
X158750000Y-167386000D03*
X158750000Y-169926000D03*
X158750000Y-172466000D03*
X158750000Y-175006000D03*
X158750000Y-177546000D03*
%TD*%
D11*
%TO.C,REF\u002A\u002A*%
X486410000Y-236220000D03*
%TD*%
D19*
%TO.C,U1*%
X175462000Y-215900000D03*
D20*
X172922000Y-215900000D03*
X170382000Y-215900000D03*
X167842000Y-215900000D03*
X165302000Y-215900000D03*
X162762000Y-215900000D03*
X160222000Y-215900000D03*
X157682000Y-215900000D03*
X155142000Y-215900000D03*
X152602000Y-215900000D03*
X150062000Y-215900000D03*
X147522000Y-215900000D03*
X144982000Y-215900000D03*
X142442000Y-215900000D03*
X139902000Y-215900000D03*
X137362000Y-215900000D03*
X134822000Y-215900000D03*
X132282000Y-215900000D03*
X129742000Y-215900000D03*
X175462000Y-241300000D03*
X172922000Y-241300000D03*
X170382000Y-241300000D03*
X167842000Y-241300000D03*
X165302000Y-241300000D03*
X162762000Y-241300000D03*
X160222000Y-241300000D03*
X157682000Y-241300000D03*
X155142000Y-241300000D03*
X152602000Y-241300000D03*
X150062000Y-241300000D03*
X147522000Y-241300000D03*
X144982000Y-241300000D03*
X142442000Y-241300000D03*
X139902000Y-241300000D03*
X137362000Y-241300000D03*
X134822000Y-241300000D03*
X132282000Y-241300000D03*
X129742000Y-241300000D03*
%TD*%
D12*
%TO.C,J8*%
X436896000Y-285144600D03*
X437896000Y-263444600D03*
%TD*%
D15*
%TO.C,TP12*%
X237490000Y-194818000D03*
%TD*%
%TO.C,TP10*%
X237490000Y-184658000D03*
%TD*%
D17*
%TO.C,JP2*%
X130048000Y-248666000D03*
D16*
X130048000Y-251206000D03*
%TD*%
D21*
%TO.C,J1*%
X132588000Y-285496000D03*
X132163820Y-278384000D03*
%TD*%
D11*
%TO.C,REF\u002A\u002A*%
X273050000Y-236220000D03*
%TD*%
%TO.C,REF\u002A\u002A*%
X308610000Y-236220000D03*
%TD*%
D12*
%TO.C,J3*%
X223536000Y-285144600D03*
X224536000Y-263444600D03*
%TD*%
D18*
%TO.C,U5*%
X158750000Y-188976000D03*
X158750000Y-191516000D03*
X158750000Y-194056000D03*
X158750000Y-196596000D03*
X158750000Y-199136000D03*
X158750000Y-201676000D03*
X158750000Y-204216000D03*
X158750000Y-206756000D03*
%TD*%
D15*
%TO.C,TP11*%
X237490000Y-189738000D03*
%TD*%
D17*
%TO.C,JP1*%
X135128000Y-248666000D03*
D16*
X135128000Y-251206000D03*
%TD*%
D20*
%TO.C,U6*%
X191841100Y-185100500D03*
X191841100Y-182560500D03*
X191841100Y-180020500D03*
X191841100Y-177480500D03*
X191841100Y-174940500D03*
X191841100Y-172400500D03*
X191841100Y-169860500D03*
X191841100Y-167320500D03*
X191841100Y-164780500D03*
D19*
X191841100Y-162240500D03*
X188031100Y-156144500D03*
D20*
X185491100Y-156144500D03*
X182951100Y-156144500D03*
X180411100Y-156144500D03*
X177871100Y-156144500D03*
D19*
X174061660Y-162240500D03*
D20*
X174061660Y-164780500D03*
X174061660Y-167320500D03*
X174061660Y-169860500D03*
X174061660Y-172400500D03*
X174061660Y-174940500D03*
X174061660Y-177480500D03*
X174061660Y-180020500D03*
X174061660Y-182560500D03*
X174061660Y-185100500D03*
%TD*%
D11*
%TO.C,REF\u002A\u002A*%
X379730000Y-236220000D03*
%TD*%
D15*
%TO.C,TP3*%
X237490000Y-174498000D03*
%TD*%
D12*
%TO.C,J5*%
X259096000Y-285144600D03*
X260096000Y-263444600D03*
%TD*%
%TO.C,J4*%
X365776000Y-285144600D03*
X366776000Y-263444600D03*
%TD*%
D13*
%TO.C,U2*%
X178826000Y-256697000D03*
D14*
X176276000Y-256697000D03*
X173726000Y-256697000D03*
%TD*%
D11*
%TO.C,REF\u002A\u002A*%
X450850000Y-236220000D03*
%TD*%
%TO.C,REF\u002A\u002A*%
X237490000Y-144780000D03*
%TD*%
D12*
%TO.C,J7*%
X294656000Y-285144600D03*
X295656000Y-263444600D03*
%TD*%
D20*
%TO.C,U7*%
X164101500Y-209701500D03*
X166641500Y-209701500D03*
X169181500Y-209701500D03*
X171721500Y-209701500D03*
X174261500Y-209701500D03*
X176801500Y-209701500D03*
X179341500Y-209701500D03*
X181881500Y-209701500D03*
X184421500Y-209701500D03*
X186961500Y-209701500D03*
X189501500Y-209701500D03*
X192041500Y-209701500D03*
X192041500Y-191921500D03*
X189501500Y-191921500D03*
X186961500Y-191921500D03*
X184421500Y-191921500D03*
X181881500Y-191921500D03*
X179341500Y-191921500D03*
X176801500Y-191921500D03*
X174261500Y-191921500D03*
X171721500Y-191921500D03*
X169181500Y-191921500D03*
X166641500Y-191921500D03*
X164101500Y-191921500D03*
%TD*%
D15*
%TO.C,TP15*%
X237490000Y-215138000D03*
%TD*%
%TO.C,TP6*%
X237490000Y-179578000D03*
%TD*%
D12*
%TO.C,J6*%
X402336000Y-263444600D03*
X401336000Y-285144600D03*
%TD*%
D15*
%TO.C,TP9*%
X237490000Y-210058000D03*
%TD*%
%TO.C,TP5*%
X237490000Y-164338000D03*
%TD*%
%TO.C,TP13*%
X237490000Y-199898000D03*
%TD*%
D11*
%TO.C,REF\u002A\u002A*%
X237490000Y-236220000D03*
%TD*%
D12*
%TO.C,J9*%
X330216000Y-285144600D03*
X331216000Y-263444600D03*
%TD*%
D16*
%TO.C,JP3*%
X129540000Y-144526000D03*
D17*
X129540000Y-147066000D03*
X129540000Y-149606000D03*
%TD*%
D15*
%TO.C,TP4*%
X237490000Y-169418000D03*
%TD*%
%TO.C,TP14*%
X237490000Y-154178000D03*
%TD*%
D11*
%TO.C,REF\u002A\u002A*%
X120650000Y-287020000D03*
%TD*%
%TO.C,REF\u002A\u002A*%
X344170000Y-236220000D03*
%TD*%
D15*
%TO.C,TP7*%
X237490000Y-159258000D03*
%TD*%
D11*
%TO.C,REF\u002A\u002A*%
X486410000Y-287020000D03*
%TD*%
%TO.C,REF\u002A\u002A*%
X120650000Y-144780000D03*
%TD*%
D10*
%TO.C,U8*%
X188550000Y-275986000D03*
X188550000Y-274686000D03*
X189850000Y-275986000D03*
X189850000Y-274686000D03*
X191150000Y-275986000D03*
X191150000Y-274686000D03*
X192450000Y-275986000D03*
X192450000Y-274686000D03*
%TD*%
M02*
