%TF.GenerationSoftware,KiCad,Pcbnew,(6.0.1-0)*%
%TF.CreationDate,2022-10-17T14:17:13-07:00*%
%TF.ProjectId,core_board,636f7265-5f62-46f6-9172-642e6b696361,rev?*%
%TF.SameCoordinates,Original*%
%TF.FileFunction,Copper,L4,Bot*%
%TF.FilePolarity,Positive*%
%FSLAX46Y46*%
G04 Gerber Fmt 4.6, Leading zero omitted, Abs format (unit mm)*
G04 Created by KiCad (PCBNEW (6.0.1-0)) date 2022-10-17 14:17:13*
%MOMM*%
%LPD*%
G01*
G04 APERTURE LIST*
%TA.AperFunction,ComponentPad*%
%ADD10C,0.508000*%
%TD*%
%TA.AperFunction,ComponentPad*%
%ADD11R,1.910000X1.910000*%
%TD*%
%TA.AperFunction,ComponentPad*%
%ADD12C,1.910000*%
%TD*%
%TA.AperFunction,ComponentPad*%
%ADD13C,3.000000*%
%TD*%
%TA.AperFunction,ComponentPad*%
%ADD14R,1.700000X1.700000*%
%TD*%
%TA.AperFunction,ComponentPad*%
%ADD15O,1.700000X1.700000*%
%TD*%
%TA.AperFunction,ComponentPad*%
%ADD16C,1.524000*%
%TD*%
%TA.AperFunction,ComponentPad*%
%ADD17R,1.560000X1.560000*%
%TD*%
%TA.AperFunction,ComponentPad*%
%ADD18C,1.560000*%
%TD*%
%TA.AperFunction,ComponentPad*%
%ADD19C,6.451600*%
%TD*%
%TA.AperFunction,ViaPad*%
%ADD20C,0.711200*%
%TD*%
%TA.AperFunction,ViaPad*%
%ADD21C,1.219200*%
%TD*%
%TA.AperFunction,Conductor*%
%ADD22C,0.254000*%
%TD*%
%TA.AperFunction,Conductor*%
%ADD23C,1.016000*%
%TD*%
G04 APERTURE END LIST*
D10*
%TO.P,U9,10*%
%TO.N,N/C*%
X159086000Y-275986000D03*
%TO.P,U9,11*%
X159086000Y-274686000D03*
%TO.P,U9,12*%
X160386000Y-275986000D03*
%TO.P,U9,13*%
X160386000Y-274686000D03*
%TO.P,U9,14*%
X161686000Y-275986000D03*
%TO.P,U9,15*%
X161686000Y-274686000D03*
%TO.P,U9,16*%
X162986000Y-275986000D03*
%TO.P,U9,17*%
X162986000Y-274686000D03*
%TD*%
D11*
%TO.P,U3,1,ADJ/GND*%
%TO.N,GND*%
X149362000Y-256697000D03*
D12*
%TO.P,U3,2,VOUT*%
%TO.N,+3V3*%
X146812000Y-256697000D03*
%TO.P,U3,3,VIN*%
%TO.N,+5V*%
X144262000Y-256697000D03*
%TD*%
D13*
%TO.P,TP8,1,1*%
%TO.N,/I2C_SDA_FAST*%
X224028000Y-204978000D03*
%TD*%
D14*
%TO.P,J2,1,Pin_1*%
%TO.N,Net-(J2-Pad1)*%
X130048000Y-258587000D03*
D15*
%TO.P,J2,2,Pin_2*%
%TO.N,Net-(J2-Pad2)*%
X130048000Y-261127000D03*
%TO.P,J2,3,Pin_3*%
%TO.N,GND*%
X130048000Y-263667000D03*
%TD*%
D13*
%TO.P,TP16,1,1*%
%TO.N,/I2C_SCL_SLOW*%
X224028000Y-220218000D03*
%TD*%
D16*
%TO.P,U4,1,CD*%
%TO.N,Net-(R3-Pad1)*%
X158750000Y-159766000D03*
%TO.P,U4,2,CS*%
%TO.N,Net-(JP3-Pad1)*%
X158750000Y-162306000D03*
%TO.P,U4,3,DI*%
%TO.N,/SPI_MOSI_CORE*%
X158750000Y-164846000D03*
%TO.P,U4,4,DO*%
%TO.N,/SPI_MISO_CORE*%
X158750000Y-167386000D03*
%TO.P,U4,5,CK*%
%TO.N,/SPI_SCK_CORE*%
X158750000Y-169926000D03*
%TO.P,U4,6,GND*%
%TO.N,GND*%
X158750000Y-172466000D03*
%TO.P,U4,7,3V*%
%TO.N,+3V3*%
X158750000Y-175006000D03*
%TO.P,U4,8,5V*%
%TO.N,+5V*%
X158750000Y-177546000D03*
%TD*%
D17*
%TO.P,U1,1,3V3*%
%TO.N,Net-(JP1-Pad2)*%
X175462000Y-215900000D03*
D18*
%TO.P,U1,2,EN*%
%TO.N,unconnected-(U1-Pad2)*%
X172922000Y-215900000D03*
%TO.P,U1,3,SENSOR_VP*%
%TO.N,/BOARD_ID_0*%
X170382000Y-215900000D03*
%TO.P,U1,4,SENSOR_VN*%
%TO.N,/BOARD_ID_1*%
X167842000Y-215900000D03*
%TO.P,U1,5,IO34*%
%TO.N,/BOARD_ID_2*%
X165302000Y-215900000D03*
%TO.P,U1,6,IO35*%
%TO.N,/BOARD_ID_3*%
X162762000Y-215900000D03*
%TO.P,U1,7,IO32*%
%TO.N,/BOARD_ID_4*%
X160222000Y-215900000D03*
%TO.P,U1,8,IO33*%
%TO.N,/BOARD_ID_5*%
X157682000Y-215900000D03*
%TO.P,U1,9,IO25*%
%TO.N,/BROADCAST*%
X155142000Y-215900000D03*
%TO.P,U1,10,IO26*%
%TO.N,/SPI_CS_1*%
X152602000Y-215900000D03*
%TO.P,U1,11,IO27*%
%TO.N,/SPI_CS_2*%
X150062000Y-215900000D03*
%TO.P,U1,12,IO14*%
%TO.N,/SPI_SCK*%
X147522000Y-215900000D03*
%TO.P,U1,13,IO12*%
%TO.N,/SPI_MISO*%
X144982000Y-215900000D03*
%TO.P,U1,14,GND1*%
%TO.N,GND*%
X142442000Y-215900000D03*
%TO.P,U1,15,IO13*%
%TO.N,/SPI_MOSI*%
X139902000Y-215900000D03*
%TO.P,U1,16,SD2*%
%TO.N,unconnected-(U1-Pad16)*%
X137362000Y-215900000D03*
%TO.P,U1,17,SD3*%
%TO.N,unconnected-(U1-Pad17)*%
X134822000Y-215900000D03*
%TO.P,U1,18,CMD*%
%TO.N,unconnected-(U1-Pad18)*%
X132282000Y-215900000D03*
%TO.P,U1,19,EXT_5V*%
%TO.N,Net-(JP2-Pad2)*%
X129742000Y-215900000D03*
%TO.P,U1,20,GND3*%
%TO.N,GND*%
X175462000Y-241300000D03*
%TO.P,U1,21,IO23*%
%TO.N,/SPI_MOSI_CORE*%
X172922000Y-241300000D03*
%TO.P,U1,22,IO22*%
%TO.N,/I2C_SCL_SLOW*%
X170382000Y-241300000D03*
%TO.P,U1,23,TXD0*%
%TO.N,/UART_TX*%
X167842000Y-241300000D03*
%TO.P,U1,24,RXD0*%
%TO.N,/UART_RX*%
X165302000Y-241300000D03*
%TO.P,U1,25,IO21*%
%TO.N,/I2C_SDA_SLOW*%
X162762000Y-241300000D03*
%TO.P,U1,26,GND2*%
%TO.N,GND*%
X160222000Y-241300000D03*
%TO.P,U1,27,IO19*%
%TO.N,/SPI_MISO_CORE*%
X157682000Y-241300000D03*
%TO.P,U1,28,IO18*%
%TO.N,/SPI_SCK_CORE*%
X155142000Y-241300000D03*
%TO.P,U1,29,IO5*%
%TO.N,/SPI_CS_CORE*%
X152602000Y-241300000D03*
%TO.P,U1,30,IO17*%
%TO.N,/I2C_SCL_FAST*%
X150062000Y-241300000D03*
%TO.P,U1,31,IO16*%
%TO.N,/I2C_SDA_FAST*%
X147522000Y-241300000D03*
%TO.P,U1,32,IO4*%
%TO.N,/INT*%
X144982000Y-241300000D03*
%TO.P,U1,33,IO0*%
%TO.N,/BOARD_ID_6*%
X142442000Y-241300000D03*
%TO.P,U1,34,IO2*%
%TO.N,/BOARD_ID_7*%
X139902000Y-241300000D03*
%TO.P,U1,35,IO15*%
%TO.N,/SPI_CS_0*%
X137362000Y-241300000D03*
%TO.P,U1,36,SD1*%
%TO.N,unconnected-(U1-Pad36)*%
X134822000Y-241300000D03*
%TO.P,U1,37,SD0*%
%TO.N,unconnected-(U1-Pad37)*%
X132282000Y-241300000D03*
%TO.P,U1,38,CLK*%
%TO.N,unconnected-(U1-Pad38)*%
X129742000Y-241300000D03*
%TD*%
D13*
%TO.P,TP12,1,1*%
%TO.N,/SPI_SCK_CORE*%
X224028000Y-194818000D03*
%TD*%
%TO.P,TP10,1,1*%
%TO.N,/SPI_MOSI_CORE*%
X224028000Y-184658000D03*
%TD*%
D14*
%TO.P,JP2,1,A*%
%TO.N,+5V*%
X130048000Y-248666000D03*
D15*
%TO.P,JP2,2,B*%
%TO.N,Net-(JP2-Pad2)*%
X130048000Y-246126000D03*
%TD*%
D19*
%TO.P,J1,1,Pin_1*%
%TO.N,+12V*%
X132588000Y-285496000D03*
%TO.P,J1,2,Pin_2*%
%TO.N,GND*%
X132163820Y-278384000D03*
%TD*%
D16*
%TO.P,U5,1,CD*%
%TO.N,Net-(R9-Pad1)*%
X158750000Y-188976000D03*
%TO.P,U5,2,CS*%
%TO.N,Net-(JP3-Pad3)*%
X158750000Y-191516000D03*
%TO.P,U5,3,DI*%
%TO.N,/SPI_MOSI_CORE*%
X158750000Y-194056000D03*
%TO.P,U5,4,DO*%
%TO.N,/SPI_MISO_CORE*%
X158750000Y-196596000D03*
%TO.P,U5,5,CK*%
%TO.N,/SPI_SCK_CORE*%
X158750000Y-199136000D03*
%TO.P,U5,6,GND*%
%TO.N,GND*%
X158750000Y-201676000D03*
%TO.P,U5,7,3V*%
%TO.N,+3V3*%
X158750000Y-204216000D03*
%TO.P,U5,8,5V*%
%TO.N,+5V*%
X158750000Y-206756000D03*
%TD*%
D13*
%TO.P,TP11,1,1*%
%TO.N,/SPI_MISO_CORE*%
X224028000Y-189738000D03*
%TD*%
D14*
%TO.P,JP1,1,A*%
%TO.N,+3V3*%
X135128000Y-248666000D03*
D15*
%TO.P,JP1,2,B*%
%TO.N,Net-(JP1-Pad2)*%
X135128000Y-246126000D03*
%TD*%
D18*
%TO.P,U6,1,P10*%
%TO.N,/Button_0*%
X191841100Y-185100500D03*
%TO.P,U6,2,P11*%
%TO.N,/Button_1*%
X191841100Y-182560500D03*
%TO.P,U6,3,P12*%
%TO.N,/Button_2*%
X191841100Y-180020500D03*
%TO.P,U6,4,P13*%
%TO.N,/Button_3*%
X191841100Y-177480500D03*
%TO.P,U6,5,P14*%
%TO.N,/Button_4*%
X191841100Y-174940500D03*
%TO.P,U6,6,P15*%
%TO.N,/Button_5*%
X191841100Y-172400500D03*
%TO.P,U6,7,P16*%
%TO.N,/Button_6*%
X191841100Y-169860500D03*
%TO.P,U6,8,P17*%
%TO.N,/Button_7*%
X191841100Y-167320500D03*
%TO.P,U6,9,VDD*%
%TO.N,+3V3*%
X191841100Y-164780500D03*
D17*
%TO.P,U6,10,GND*%
%TO.N,GND*%
X191841100Y-162240500D03*
%TO.P,U6,11,GND*%
X188031100Y-156144500D03*
D18*
%TO.P,U6,12,VCC*%
%TO.N,+3V3*%
X185491100Y-156144500D03*
%TO.P,U6,13,SDA*%
%TO.N,/I2C_SDA_SLOW*%
X182951100Y-156144500D03*
%TO.P,U6,14,SCL*%
%TO.N,/I2C_SCL_SLOW*%
X180411100Y-156144500D03*
%TO.P,U6,15,INT*%
%TO.N,/INT*%
X177871100Y-156144500D03*
D17*
%TO.P,U6,16,GND*%
%TO.N,GND*%
X174061660Y-162240500D03*
D18*
%TO.P,U6,17,VDD*%
%TO.N,+3V3*%
X174061660Y-164780500D03*
%TO.P,U6,18,P00*%
%TO.N,/LED_0*%
X174061660Y-167320500D03*
%TO.P,U6,19,P01*%
%TO.N,/LED_1*%
X174061660Y-169860500D03*
%TO.P,U6,20,P02*%
%TO.N,/LED_2*%
X174061660Y-172400500D03*
%TO.P,U6,21,P03*%
%TO.N,/LED_3*%
X174061660Y-174940500D03*
%TO.P,U6,22,P04*%
%TO.N,/LED_4*%
X174061660Y-177480500D03*
%TO.P,U6,23,P05*%
%TO.N,/LED_5*%
X174061660Y-180020500D03*
%TO.P,U6,24,P06*%
%TO.N,/LED_6*%
X174061660Y-182560500D03*
%TO.P,U6,25,P07*%
%TO.N,/LED_7*%
X174061660Y-185100500D03*
%TD*%
D13*
%TO.P,TP3,1,1*%
%TO.N,/SPI_MOSI*%
X224028000Y-174498000D03*
%TD*%
D11*
%TO.P,U2,1,ADJ/GND*%
%TO.N,GND*%
X178826000Y-256697000D03*
D12*
%TO.P,U2,2,VOUT*%
%TO.N,/EXT_3V3*%
X176276000Y-256697000D03*
%TO.P,U2,3,VIN*%
%TO.N,/EXT_5V*%
X173726000Y-256697000D03*
%TD*%
D18*
%TO.P,U7,1,VIN*%
%TO.N,+3V3*%
X164101500Y-209701500D03*
%TO.P,U7,2,GND*%
%TO.N,GND*%
X166641500Y-209701500D03*
%TO.P,U7,3,SDA*%
%TO.N,/I2C_SDA_SLOW*%
X169181500Y-209701500D03*
%TO.P,U7,4,SCL*%
%TO.N,/I2C_SCL_SLOW*%
X171721500Y-209701500D03*
%TO.P,U7,5,RST*%
%TO.N,unconnected-(U7-Pad5)*%
X174261500Y-209701500D03*
%TO.P,U7,6,A0*%
%TO.N,GND*%
X176801500Y-209701500D03*
%TO.P,U7,7,A1*%
X179341500Y-209701500D03*
%TO.P,U7,8,A2*%
X181881500Y-209701500D03*
%TO.P,U7,9,SD0*%
%TO.N,/I2C_SDA_0*%
X184421500Y-209701500D03*
%TO.P,U7,10,SC0*%
%TO.N,/I2C_SCL_0*%
X186961500Y-209701500D03*
%TO.P,U7,11,SD1*%
%TO.N,/I2C_SDA_1*%
X189501500Y-209701500D03*
%TO.P,U7,12,SC1*%
%TO.N,/I2C_SCL_1*%
X192041500Y-209701500D03*
%TO.P,U7,13,SD2*%
%TO.N,/I2C_SDA_2*%
X192041500Y-191921500D03*
%TO.P,U7,14,SC2*%
%TO.N,/I2C_SCL_2*%
X189501500Y-191921500D03*
%TO.P,U7,15,SD3*%
%TO.N,/I2C_SDA_3*%
X186961500Y-191921500D03*
%TO.P,U7,16,SC3*%
%TO.N,/I2C_SCL_3*%
X184421500Y-191921500D03*
%TO.P,U7,17,SD4*%
%TO.N,/I2C_SDA_4*%
X181881500Y-191921500D03*
%TO.P,U7,18,SC4*%
%TO.N,/I2C_SCL_4*%
X179341500Y-191921500D03*
%TO.P,U7,19,SD5*%
%TO.N,/I2C_SDA_5*%
X176801500Y-191921500D03*
%TO.P,U7,20,SC5*%
%TO.N,/I2C_SCL_5*%
X174261500Y-191921500D03*
%TO.P,U7,21,SD6*%
%TO.N,/I2C_SDA_6*%
X171721500Y-191921500D03*
%TO.P,U7,22,SC6*%
%TO.N,/I2C_SCL_6*%
X169181500Y-191921500D03*
%TO.P,U7,23,SD7*%
%TO.N,/I2C_SDA_7*%
X166641500Y-191921500D03*
%TO.P,U7,24,SC7*%
%TO.N,/I2C_SCL_7*%
X164101500Y-191921500D03*
%TD*%
D13*
%TO.P,TP15,1,1*%
%TO.N,/I2C_SDA_SLOW*%
X224028000Y-215138000D03*
%TD*%
%TO.P,TP6,1,1*%
%TO.N,/SPI_CS_0*%
X224028000Y-179578000D03*
%TD*%
%TO.P,TP9,1,1*%
%TO.N,/I2C_SCL_FAST*%
X224028000Y-210058000D03*
%TD*%
%TO.P,TP5,1,1*%
%TO.N,/SPI_SCK*%
X224028000Y-164338000D03*
%TD*%
%TO.P,TP13,1,1*%
%TO.N,/SPI_CS_CORE*%
X224028000Y-199898000D03*
%TD*%
D14*
%TO.P,JP3,1,A*%
%TO.N,Net-(JP3-Pad1)*%
X129540000Y-144526000D03*
D15*
%TO.P,JP3,2,C*%
%TO.N,/SPI_CS_CORE*%
X129540000Y-147066000D03*
%TO.P,JP3,3,B*%
%TO.N,Net-(JP3-Pad3)*%
X129540000Y-149606000D03*
%TD*%
D13*
%TO.P,TP4,1,1*%
%TO.N,/SPI_MISO*%
X224028000Y-169418000D03*
%TD*%
%TO.P,TP14,1,1*%
%TO.N,/SPI_CS_1*%
X224028000Y-154178000D03*
%TD*%
%TO.P,TP7,1,1*%
%TO.N,/SPI_CS_2*%
X224028000Y-159258000D03*
%TD*%
D10*
%TO.P,U8,10*%
%TO.N,N/C*%
X188550000Y-275986000D03*
%TO.P,U8,11*%
X188550000Y-274686000D03*
%TO.P,U8,12*%
X189850000Y-275986000D03*
%TO.P,U8,13*%
X189850000Y-274686000D03*
%TO.P,U8,14*%
X191150000Y-275986000D03*
%TO.P,U8,15*%
X191150000Y-274686000D03*
%TO.P,U8,16*%
X192450000Y-275986000D03*
%TO.P,U8,17*%
X192450000Y-274686000D03*
%TD*%
D20*
%TO.N,/I2C_SCL_SLOW*%
X170688000Y-225298000D03*
%TO.N,/I2C_SDA_SLOW*%
X163068000Y-224536000D03*
%TO.N,/SPI_CS_1*%
X356494000Y-271788000D03*
X421518000Y-265692000D03*
X271404000Y-259596000D03*
X249814000Y-271788000D03*
X243718000Y-265692000D03*
X314838000Y-265692000D03*
X279278000Y-265692000D03*
X463168520Y-271779520D03*
X385958000Y-265692000D03*
X189984000Y-224020000D03*
X235844000Y-259596000D03*
X320934000Y-271788000D03*
X200284000Y-259596000D03*
X427614000Y-271788000D03*
X449198520Y-259587520D03*
X214254000Y-271788000D03*
X306964000Y-259596000D03*
X378084000Y-259596000D03*
X350398000Y-265692000D03*
X413644000Y-259596000D03*
X342524000Y-259596000D03*
X208158000Y-265692000D03*
X392054000Y-271788000D03*
X457072520Y-265683520D03*
X285374000Y-271788000D03*
%TO.N,/SPI_CS_CORE*%
X176530000Y-233934000D03*
X217651631Y-206248000D03*
%TO.N,/SPI_SCK_CORE*%
X217143631Y-201676000D03*
X175260000Y-233934000D03*
%TO.N,/SPI_MISO_CORE*%
X174244000Y-232664000D03*
X216407520Y-197332111D03*
%TO.N,/SPI_MOSI_CORE*%
X172974000Y-232664000D03*
X215671409Y-192988222D03*
%TO.N,/I2C_SCL_FAST*%
X202570000Y-257818000D03*
X451484520Y-257809520D03*
X194056000Y-236474000D03*
X309250000Y-257818000D03*
X380370000Y-257818000D03*
X344810000Y-257818000D03*
X415930000Y-257818000D03*
X273690000Y-257818000D03*
X238130000Y-257818000D03*
%TO.N,/I2C_SDA_FAST*%
X273690000Y-256548000D03*
X194310000Y-235458000D03*
X451484520Y-256539520D03*
X380370000Y-256548000D03*
X415930000Y-256548000D03*
X309250000Y-256548000D03*
X344810000Y-256548000D03*
X238130000Y-256548000D03*
X202570000Y-256548000D03*
%TO.N,/SPI_CS_2*%
X430916000Y-273820000D03*
X466470520Y-273811520D03*
X342524000Y-261120000D03*
X423804000Y-266708000D03*
X388244000Y-266708000D03*
X210444000Y-266708000D03*
X449198520Y-261111520D03*
X317124000Y-266708000D03*
X189984000Y-225036000D03*
X200284000Y-261120000D03*
X306964000Y-261120000D03*
X413644000Y-261120000D03*
X324236000Y-273820000D03*
X352684000Y-266708000D03*
X459358520Y-266699520D03*
X246004000Y-266708000D03*
X288676000Y-273820000D03*
X395356000Y-273820000D03*
X253116000Y-273820000D03*
X217556000Y-273820000D03*
X271404000Y-261120000D03*
X378084000Y-261120000D03*
X235844000Y-261120000D03*
X359796000Y-273820000D03*
X281564000Y-266708000D03*
%TO.N,/SPI_CS_0*%
X413644000Y-266200000D03*
X189984000Y-229100000D03*
X144272000Y-243840000D03*
X200284000Y-266200000D03*
X342524000Y-266200000D03*
X271404000Y-266200000D03*
X378084000Y-266200000D03*
X235844000Y-266200000D03*
X449198520Y-266191520D03*
X306964000Y-266200000D03*
%TO.N,/SPI_SCK*%
X359796000Y-268994000D03*
X200284000Y-262390000D03*
X260482000Y-270772000D03*
X296042000Y-270772000D03*
X331602000Y-270772000D03*
X378084000Y-262390000D03*
X189984000Y-226052000D03*
X402722000Y-270772000D03*
X466470520Y-268985520D03*
X288676000Y-268994000D03*
X473836520Y-270763520D03*
X367162000Y-270772000D03*
X324236000Y-268994000D03*
X253116000Y-268994000D03*
X430916000Y-268994000D03*
X342524000Y-262390000D03*
X271404000Y-262390000D03*
X224922000Y-270772000D03*
X395356000Y-268994000D03*
X449198520Y-262381520D03*
X217556000Y-268994000D03*
X306964000Y-262390000D03*
X438282000Y-270772000D03*
X413644000Y-262390000D03*
X235844000Y-262390000D03*
%TO.N,/SPI_MISO*%
X428630000Y-268232000D03*
X413644000Y-263660000D03*
X260482000Y-268994000D03*
X378084000Y-263660000D03*
X271404000Y-263660000D03*
X357510000Y-268232000D03*
X331602000Y-268994000D03*
X438282000Y-268994000D03*
X393070000Y-268232000D03*
X200284000Y-263660000D03*
X342524000Y-263660000D03*
X224922000Y-268994000D03*
X235844000Y-263660000D03*
X296042000Y-268994000D03*
X286390000Y-268232000D03*
X306964000Y-263660000D03*
X215270000Y-268232000D03*
X189984000Y-227068000D03*
X367162000Y-268994000D03*
X321950000Y-268232000D03*
X473836520Y-268985520D03*
X464184520Y-268223520D03*
X250830000Y-268232000D03*
X402722000Y-268994000D03*
X449198520Y-263651520D03*
%TO.N,/SPI_MOSI*%
X320680000Y-268994000D03*
X214000000Y-268994000D03*
X378084000Y-264930000D03*
X391800000Y-268994000D03*
X402722000Y-272804000D03*
X342524000Y-264930000D03*
X473836520Y-272795520D03*
X449198520Y-264921520D03*
X331602000Y-272804000D03*
X306964000Y-264930000D03*
X462914520Y-268985520D03*
X356240000Y-268994000D03*
X271404000Y-264930000D03*
X427360000Y-268994000D03*
X285120000Y-268994000D03*
X260482000Y-272804000D03*
X296042000Y-272804000D03*
X235844000Y-264930000D03*
X200284000Y-264930000D03*
X413644000Y-264930000D03*
X189984000Y-228084000D03*
X224922000Y-272804000D03*
X438282000Y-272804000D03*
X249560000Y-268994000D03*
X367162000Y-272804000D03*
%TO.N,Net-(C16-Pad2)*%
X159004000Y-279908000D03*
X157226000Y-272796000D03*
D21*
%TO.N,GND*%
X300990000Y-273812000D03*
X150368000Y-150622000D03*
X295656000Y-279781000D03*
X163830000Y-143383000D03*
X156210000Y-143383000D03*
X148590000Y-143383000D03*
X478790000Y-269748000D03*
D20*
X143891000Y-277114000D03*
D21*
X224536000Y-279781000D03*
X407670000Y-273812000D03*
X135636000Y-269494000D03*
X478790000Y-271780000D03*
X407670000Y-269748000D03*
D20*
X145288000Y-277114000D03*
D21*
X443230000Y-269748000D03*
D20*
X173355000Y-278638000D03*
D21*
X372110000Y-269748000D03*
D20*
X152273000Y-281559000D03*
D21*
X157988000Y-150622000D03*
D20*
X184785000Y-280416000D03*
D21*
X366776000Y-279781000D03*
X140970000Y-143383000D03*
X478790000Y-273812000D03*
X402336000Y-279781000D03*
X179070000Y-143383000D03*
X300990000Y-267716000D03*
D20*
X146812000Y-278638000D03*
D21*
X443230000Y-271780000D03*
X478790000Y-267716000D03*
X130810000Y-267589000D03*
D20*
X180213000Y-281559000D03*
X150749000Y-281559000D03*
D21*
X173228000Y-150622000D03*
D20*
X183261000Y-281559000D03*
D21*
X229870000Y-271780000D03*
D20*
X152273000Y-280416000D03*
D21*
X437896000Y-279781000D03*
D20*
X155321000Y-280416000D03*
D21*
X186690000Y-143383000D03*
D20*
X143891000Y-278638000D03*
D21*
X372110000Y-271780000D03*
X372110000Y-273812000D03*
X300990000Y-271780000D03*
D20*
X184785000Y-281559000D03*
X146812000Y-277114000D03*
X156845000Y-280416000D03*
D21*
X443230000Y-267716000D03*
D20*
X174752000Y-278638000D03*
X176276000Y-277114000D03*
D21*
X165608000Y-150622000D03*
X260096000Y-279781000D03*
X336550000Y-269748000D03*
D20*
X174752000Y-277114000D03*
D21*
X135128000Y-150622000D03*
D20*
X145288000Y-278638000D03*
X176276000Y-278638000D03*
D21*
X407670000Y-267716000D03*
D20*
X156845000Y-281559000D03*
D21*
X133223000Y-267589000D03*
X180848000Y-150622000D03*
X443230000Y-273812000D03*
X336550000Y-271780000D03*
X133223000Y-269494000D03*
X142748000Y-150622000D03*
D20*
X186309000Y-280416000D03*
D21*
X372110000Y-267716000D03*
X229870000Y-273812000D03*
X135636000Y-267589000D03*
X229870000Y-269748000D03*
D20*
X181737000Y-280416000D03*
X173355000Y-277114000D03*
D21*
X171450000Y-143383000D03*
D20*
X155321000Y-281559000D03*
X153797000Y-281559000D03*
D21*
X473456000Y-279781000D03*
X229870000Y-267716000D03*
X265430000Y-271780000D03*
D20*
X183261000Y-280416000D03*
X186309000Y-281559000D03*
D21*
X265430000Y-269748000D03*
X336550000Y-267716000D03*
X188468000Y-150622000D03*
D20*
X180213000Y-280416000D03*
D21*
X265430000Y-273812000D03*
D20*
X181737000Y-281559000D03*
X150749000Y-280416000D03*
D21*
X331216000Y-279781000D03*
X128397000Y-267589000D03*
X300990000Y-269748000D03*
X336550000Y-273812000D03*
X265430000Y-267716000D03*
X128397000Y-269494000D03*
D20*
X153797000Y-280416000D03*
D21*
X130810000Y-269494000D03*
X407670000Y-271780000D03*
D20*
%TO.N,Net-(C9-Pad2)*%
X188468000Y-279908000D03*
X186690000Y-272796000D03*
D21*
%TO.N,+3V3*%
X168656000Y-179832000D03*
X154686000Y-252730000D03*
X214122000Y-162814000D03*
X164846000Y-168910000D03*
X208788000Y-156845000D03*
X173736000Y-248666000D03*
X207645000Y-166370000D03*
D20*
%TO.N,/I2C_SDA_0*%
X198374000Y-224028000D03*
X203962000Y-202946000D03*
X198374000Y-241046000D03*
%TO.N,/I2C_SCL_0*%
X199390000Y-224028000D03*
X203962000Y-205740000D03*
X199390000Y-241046000D03*
%TO.N,/I2C_SDA_1*%
X203962000Y-208534000D03*
X200406000Y-224028000D03*
X200406000Y-241046000D03*
%TO.N,/I2C_SCL_1*%
X203962000Y-211328000D03*
X201422000Y-224028000D03*
X201422000Y-241046000D03*
%TO.N,/I2C_SDA_2*%
X207570944Y-214818076D03*
X214376000Y-252730000D03*
%TO.N,/I2C_SCL_2*%
X213360000Y-251968000D03*
X207568008Y-215849992D03*
%TO.N,/I2C_SDA_3*%
X212344000Y-251206000D03*
X207555506Y-216878494D03*
%TO.N,/I2C_SCL_3*%
X211328000Y-250444000D03*
X207543004Y-217906996D03*
%TO.N,/I2C_SDA_4*%
X207530502Y-218935498D03*
X210312000Y-249682000D03*
%TO.N,/I2C_SCL_4*%
X207530502Y-219951498D03*
X209296000Y-248920000D03*
%TO.N,/I2C_SDA_5*%
X208280000Y-248158000D03*
X207530502Y-220967498D03*
%TO.N,/I2C_SCL_5*%
X207518000Y-247396000D03*
X207505490Y-221983490D03*
%TO.N,/I2C_SDA_6*%
X202565000Y-169418000D03*
X205486000Y-246634000D03*
X205486000Y-224028000D03*
%TO.N,/I2C_SCL_6*%
X204470000Y-224028000D03*
X204470000Y-245872000D03*
X202565000Y-172212000D03*
%TO.N,/I2C_SDA_7*%
X202565000Y-175006000D03*
X203454000Y-224028000D03*
X203454000Y-245110000D03*
%TO.N,/I2C_SCL_7*%
X202438000Y-224028000D03*
X202565000Y-177800000D03*
X202438000Y-244348000D03*
%TO.N,Net-(J2-Pad1)*%
X159004000Y-259048500D03*
%TO.N,Net-(J2-Pad2)*%
X157480000Y-259048500D03*
%TO.N,/INT*%
X130048000Y-228092000D03*
X134874000Y-228092000D03*
D21*
%TO.N,/EXT_5V*%
X324612000Y-279908000D03*
X466852000Y-279908000D03*
X431292000Y-279908000D03*
X217932000Y-279908000D03*
X253492000Y-279908000D03*
X395732000Y-279908000D03*
X360172000Y-279908000D03*
X289052000Y-279908000D03*
D20*
%TO.N,/BOARD_ID_1*%
X256286000Y-274828000D03*
X182626000Y-241046000D03*
X182626000Y-248412000D03*
%TO.N,/BROADCAST*%
X234828000Y-254770000D03*
X377068000Y-254770000D03*
X199268000Y-254770000D03*
X305948000Y-254770000D03*
X191516000Y-222758000D03*
X412628000Y-254770000D03*
X341508000Y-254770000D03*
X186690000Y-217932000D03*
X448182520Y-254761520D03*
X270388000Y-254770000D03*
D21*
%TO.N,/EXT_3V3*%
X479044000Y-279908000D03*
X372364000Y-279908000D03*
X230124000Y-279908000D03*
X407924000Y-279908000D03*
X443484000Y-279908000D03*
X336804000Y-279908000D03*
X265684000Y-279908000D03*
X301244000Y-279908000D03*
D20*
%TO.N,/BOARD_ID_7*%
X469646000Y-274828000D03*
X151384000Y-251460000D03*
%TO.N,/BOARD_ID_6*%
X434086000Y-274828000D03*
X151384000Y-250190000D03*
%TO.N,/BOARD_ID_5*%
X178562000Y-241046000D03*
X178562000Y-248412000D03*
X398526000Y-274828000D03*
%TO.N,/BOARD_ID_3*%
X180594000Y-241046000D03*
X180594000Y-248412000D03*
X327406000Y-274828000D03*
%TO.N,/BOARD_ID_4*%
X179578000Y-241046000D03*
X362966000Y-274828000D03*
X179578000Y-248412000D03*
%TO.N,/BOARD_ID_0*%
X220726000Y-274828000D03*
X183642000Y-248412000D03*
X183642000Y-241046000D03*
%TO.N,/BOARD_ID_2*%
X181610000Y-241046000D03*
X292100000Y-274828000D03*
X181610000Y-248412000D03*
%TO.N,/Button_0*%
X195072000Y-156972000D03*
%TO.N,/Button_1*%
X196342000Y-158750000D03*
%TO.N,/LED_0*%
X167894000Y-176477561D03*
%TO.N,/LED_1*%
X168910000Y-176477561D03*
%TO.N,/LED_2*%
X169926000Y-176477567D03*
%TO.N,/LED_4*%
X181864000Y-171450000D03*
%TO.N,/LED_5*%
X182880000Y-171450000D03*
%TO.N,/LED_6*%
X183896000Y-171450000D03*
%TO.N,/LED_7*%
X184912000Y-171450000D03*
%TD*%
D22*
%TO.N,/I2C_SCL_SLOW*%
X170688000Y-225298000D02*
X170382000Y-225604000D01*
X170382000Y-225604000D02*
X170382000Y-241300000D01*
%TO.N,/I2C_SDA_SLOW*%
X162762000Y-224842000D02*
X163068000Y-224536000D01*
X162762000Y-241300000D02*
X162762000Y-224842000D01*
%TO.N,/SPI_CS_1*%
X200284000Y-259596000D02*
X193511742Y-259596000D01*
X449198520Y-259587520D02*
X442230480Y-259587520D01*
X320934000Y-271788000D02*
X314838000Y-265692000D01*
X193511742Y-259596000D02*
X192524000Y-258608258D01*
X374782000Y-259596000D02*
X375150000Y-259596000D01*
X427614000Y-271788000D02*
X421518000Y-265692000D01*
X192524000Y-258608258D02*
X192524000Y-231894000D01*
X235844000Y-259596000D02*
X200284000Y-259596000D01*
X192778000Y-231640000D02*
X192778000Y-226560000D01*
X214254000Y-271788000D02*
X208158000Y-265692000D01*
X392054000Y-271788000D02*
X385958000Y-265692000D01*
X342524000Y-259596000D02*
X375150000Y-259596000D01*
X249814000Y-271788000D02*
X243718000Y-265692000D01*
X413644000Y-259596000D02*
X442222000Y-259596000D01*
X442222000Y-259596000D02*
X444028258Y-259596000D01*
X356494000Y-271788000D02*
X350398000Y-265692000D01*
X463168520Y-271779520D02*
X457072520Y-265683520D01*
X190238000Y-224020000D02*
X189984000Y-224020000D01*
X271404000Y-259596000D02*
X306964000Y-259596000D01*
X378084000Y-259596000D02*
X413644000Y-259596000D01*
X192778000Y-226560000D02*
X190238000Y-224020000D01*
X235844000Y-259596000D02*
X271404000Y-259596000D01*
X442230480Y-259587520D02*
X442222000Y-259596000D01*
X374782000Y-259596000D02*
X373766000Y-259596000D01*
X192524000Y-231894000D02*
X192778000Y-231640000D01*
X285374000Y-271788000D02*
X279278000Y-265692000D01*
X306964000Y-259596000D02*
X342524000Y-259596000D01*
X375150000Y-259596000D02*
X376306000Y-259596000D01*
X376306000Y-259596000D02*
X378084000Y-259596000D01*
%TO.N,/SPI_CS_CORE*%
X217905631Y-162787631D02*
X209296000Y-154178000D01*
X217905631Y-202184000D02*
X217905631Y-162787631D01*
X176232222Y-243839520D02*
X177545520Y-242526221D01*
X177545520Y-242526221D02*
X177545520Y-240073778D01*
X209296000Y-154178000D02*
X136667000Y-154178000D01*
X155141520Y-243839520D02*
X176232222Y-243839520D01*
X152602000Y-241300000D02*
X155141520Y-243839520D01*
X176530000Y-239058258D02*
X176530000Y-233934000D01*
X217651631Y-206248000D02*
X217651631Y-202438000D01*
X177545520Y-240073778D02*
X176530000Y-239058258D01*
X136667000Y-154178000D02*
X129540000Y-147051000D01*
X217651631Y-202438000D02*
X217905631Y-202184000D01*
%TO.N,/SPI_SCK_CORE*%
X215138000Y-199136000D02*
X217143631Y-201141631D01*
X161797520Y-166878480D02*
X158750000Y-169926000D01*
X177038000Y-240284000D02*
X177038000Y-242316000D01*
X153416000Y-160274000D02*
X156464000Y-157226000D01*
X161797520Y-158495520D02*
X161797520Y-166878480D01*
X160528000Y-157226000D02*
X161797520Y-158495520D01*
X175260000Y-233934000D02*
X176022000Y-234696000D01*
X158750000Y-199136000D02*
X153416000Y-193802000D01*
X176022000Y-234696000D02*
X176022000Y-239268000D01*
X158750000Y-199136000D02*
X215138000Y-199136000D01*
X156464000Y-157226000D02*
X160528000Y-157226000D01*
X176022000Y-243332000D02*
X157174000Y-243332000D01*
X157174000Y-243332000D02*
X155142000Y-241300000D01*
X177038000Y-242316000D02*
X176022000Y-243332000D01*
X217143631Y-201141631D02*
X217143631Y-201676000D01*
X176022000Y-239268000D02*
X177038000Y-240284000D01*
X153416000Y-193802000D02*
X153416000Y-160274000D01*
%TO.N,/SPI_MISO_CORE*%
X170688000Y-222758000D02*
X161290000Y-222758000D01*
X174244000Y-232664000D02*
X174244000Y-226314000D01*
X161290000Y-222758000D02*
X157682000Y-226366000D01*
X161290000Y-158750000D02*
X161290000Y-164846000D01*
X215111631Y-198628000D02*
X216407520Y-197332111D01*
X158750000Y-196596000D02*
X153924000Y-191770000D01*
X156718000Y-157734000D02*
X160274000Y-157734000D01*
X153924000Y-191770000D02*
X153924000Y-160528000D01*
X158750000Y-196596000D02*
X160782000Y-198628000D01*
X160274000Y-157734000D02*
X161290000Y-158750000D01*
X160782000Y-198628000D02*
X215111631Y-198628000D01*
X161290000Y-164846000D02*
X158750000Y-167386000D01*
X157682000Y-226366000D02*
X157682000Y-241300000D01*
X174244000Y-226314000D02*
X170688000Y-222758000D01*
X153924000Y-160528000D02*
X156718000Y-157734000D01*
%TO.N,/SPI_MOSI_CORE*%
X162814480Y-198120480D02*
X214121520Y-198120480D01*
X158750000Y-194056000D02*
X154432000Y-189738000D01*
X172922000Y-232716000D02*
X172974000Y-232664000D01*
X154432000Y-189738000D02*
X154432000Y-169164000D01*
X215671409Y-196570591D02*
X215671409Y-192988222D01*
X214121520Y-198120480D02*
X215671409Y-196570591D01*
X154432000Y-169164000D02*
X158750000Y-164846000D01*
X158750000Y-194056000D02*
X162814480Y-198120480D01*
X172922000Y-241300000D02*
X172922000Y-232716000D01*
%TO.N,/I2C_SCL_FAST*%
X309250000Y-257818000D02*
X310012000Y-257056000D01*
X274452000Y-257056000D02*
X308488000Y-257056000D01*
X310012000Y-257056000D02*
X344048000Y-257056000D01*
X381132000Y-257056000D02*
X415168000Y-257056000D01*
X273690000Y-257818000D02*
X274452000Y-257056000D01*
X203332000Y-257056000D02*
X237368000Y-257056000D01*
X237368000Y-257056000D02*
X238130000Y-257818000D01*
X415930000Y-257818000D02*
X416692000Y-257056000D01*
X416692000Y-257056000D02*
X450731000Y-257056000D01*
X380370000Y-257818000D02*
X381132000Y-257056000D01*
X450731000Y-257056000D02*
X451484520Y-257809520D01*
X194056000Y-255524000D02*
X195588000Y-257056000D01*
X415168000Y-257056000D02*
X415930000Y-257818000D01*
X272928000Y-257056000D02*
X273690000Y-257818000D01*
X374911520Y-257055520D02*
X374912000Y-257056000D01*
X238892000Y-257056000D02*
X272928000Y-257056000D01*
X370083000Y-257056000D02*
X370083480Y-257055520D01*
X374782000Y-257056000D02*
X373766000Y-257056000D01*
X202570000Y-257818000D02*
X203332000Y-257056000D01*
X195588000Y-257056000D02*
X201808000Y-257056000D01*
X345572000Y-257056000D02*
X370718000Y-257056000D01*
X344810000Y-257818000D02*
X345572000Y-257056000D01*
X201808000Y-257056000D02*
X202570000Y-257818000D01*
X374912000Y-257056000D02*
X379608000Y-257056000D01*
X344048000Y-257056000D02*
X344810000Y-257818000D01*
X370718480Y-257055520D02*
X374911520Y-257055520D01*
X238130000Y-257818000D02*
X238892000Y-257056000D01*
X374782000Y-257056000D02*
X374912000Y-257056000D01*
X308488000Y-257056000D02*
X309250000Y-257818000D01*
X194056000Y-236474000D02*
X194056000Y-255524000D01*
X379608000Y-257056000D02*
X380370000Y-257818000D01*
%TO.N,/I2C_SDA_FAST*%
X273690000Y-256548000D02*
X309250000Y-256548000D01*
X344810000Y-256548000D02*
X380370000Y-256548000D01*
X194818000Y-236982000D02*
X194564000Y-237236000D01*
X194818000Y-235966000D02*
X194818000Y-236982000D01*
X238130000Y-256548000D02*
X273690000Y-256548000D01*
X415930000Y-256548000D02*
X441838000Y-256548000D01*
X441203480Y-256548000D02*
X441211960Y-256539520D01*
X194310000Y-235458000D02*
X194818000Y-235966000D01*
X380370000Y-256548000D02*
X415930000Y-256548000D01*
X194564000Y-255270000D02*
X195842000Y-256548000D01*
X194564000Y-237236000D02*
X194564000Y-255270000D01*
X195842000Y-256548000D02*
X202570000Y-256548000D01*
X309250000Y-256548000D02*
X344810000Y-256548000D01*
X238130000Y-256548000D02*
X202570000Y-256548000D01*
X441846480Y-256539520D02*
X451484520Y-256539520D01*
%TO.N,/SPI_CS_2*%
X246004000Y-266708000D02*
X253116000Y-273820000D01*
X200284000Y-261120000D02*
X199268000Y-260104000D01*
X339221520Y-260103520D02*
X339222000Y-260104000D01*
X201300000Y-260104000D02*
X234828000Y-260104000D01*
X210444000Y-266708000D02*
X217556000Y-273820000D01*
X335034000Y-260104000D02*
X335158000Y-260104000D01*
X412628000Y-260104000D02*
X413644000Y-261120000D01*
X444246480Y-260095520D02*
X444238000Y-260104000D01*
X235844000Y-261120000D02*
X236860000Y-260104000D01*
X335034480Y-260103520D02*
X339221520Y-260103520D01*
X448182520Y-260095520D02*
X444246480Y-260095520D01*
X378084000Y-261120000D02*
X379100000Y-260104000D01*
X335034000Y-260104000D02*
X335034480Y-260103520D01*
X271404000Y-261120000D02*
X272420000Y-260104000D01*
X423804000Y-266708000D02*
X430916000Y-273820000D01*
X413644000Y-261120000D02*
X414660000Y-260104000D01*
X414660000Y-260104000D02*
X444238000Y-260104000D01*
X444238000Y-260104000D02*
X444452557Y-260104000D01*
X306964000Y-261120000D02*
X307980000Y-260104000D01*
X192016000Y-231386000D02*
X192270000Y-231132000D01*
X192016000Y-258818000D02*
X192016000Y-231386000D01*
X449198520Y-261111520D02*
X448182520Y-260095520D01*
X459358520Y-266699520D02*
X466470520Y-273811520D01*
X377068000Y-260104000D02*
X378084000Y-261120000D01*
X199268000Y-260104000D02*
X193302000Y-260104000D01*
X234828000Y-260104000D02*
X235844000Y-261120000D01*
X190238000Y-225036000D02*
X189984000Y-225036000D01*
X305948000Y-260104000D02*
X306964000Y-261120000D01*
X352684000Y-266708000D02*
X359796000Y-273820000D01*
X341508000Y-260104000D02*
X342524000Y-261120000D01*
X307980000Y-260104000D02*
X335034000Y-260104000D01*
X317124000Y-266708000D02*
X324236000Y-273820000D01*
X200284000Y-261120000D02*
X201300000Y-260104000D01*
X281564000Y-266708000D02*
X288676000Y-273820000D01*
X272420000Y-260104000D02*
X305948000Y-260104000D01*
X343540000Y-260104000D02*
X377068000Y-260104000D01*
X388244000Y-266708000D02*
X395356000Y-273820000D01*
X339222000Y-260104000D02*
X341508000Y-260104000D01*
X342524000Y-261120000D02*
X343540000Y-260104000D01*
X193302000Y-260104000D02*
X192016000Y-258818000D01*
X379100000Y-260104000D02*
X412628000Y-260104000D01*
X192270000Y-231132000D02*
X192270000Y-227068000D01*
X339222000Y-260104000D02*
X338206000Y-260104000D01*
X236860000Y-260104000D02*
X270388000Y-260104000D01*
X270388000Y-260104000D02*
X271404000Y-261120000D01*
X192270000Y-227068000D02*
X190238000Y-225036000D01*
%TO.N,/SPI_CS_0*%
X267340000Y-262136000D02*
X271404000Y-266200000D01*
X204348000Y-262136000D02*
X231780000Y-262136000D01*
X200284000Y-266200000D02*
X196220000Y-262136000D01*
X137922000Y-243840000D02*
X144272000Y-243840000D01*
X271404000Y-266200000D02*
X275468000Y-262136000D01*
X200284000Y-266200000D02*
X204348000Y-262136000D01*
X275468000Y-262136000D02*
X302900000Y-262136000D01*
X382148000Y-262136000D02*
X409580000Y-262136000D01*
X417708000Y-262136000D02*
X445143000Y-262136000D01*
X413644000Y-266200000D02*
X417708000Y-262136000D01*
X306964000Y-266200000D02*
X311028000Y-262136000D01*
X302900000Y-262136000D02*
X306964000Y-266200000D01*
X231780000Y-262136000D02*
X235844000Y-266200000D01*
X338460000Y-262136000D02*
X342524000Y-266200000D01*
X346588000Y-262136000D02*
X374020000Y-262136000D01*
X189984000Y-259834000D02*
X189984000Y-229100000D01*
X374020000Y-262136000D02*
X378084000Y-266200000D01*
X342524000Y-266200000D02*
X346588000Y-262136000D01*
X311028000Y-262136000D02*
X338460000Y-262136000D01*
X137362000Y-243280000D02*
X137922000Y-243840000D01*
X409580000Y-262136000D02*
X413644000Y-266200000D01*
X445143000Y-262136000D02*
X449198520Y-266191520D01*
X239908000Y-262136000D02*
X267340000Y-262136000D01*
X192286000Y-262136000D02*
X189984000Y-259834000D01*
X378084000Y-266200000D02*
X382148000Y-262136000D01*
X196220000Y-262136000D02*
X192286000Y-262136000D01*
X137362000Y-241300000D02*
X137362000Y-243280000D01*
X235844000Y-266200000D02*
X239908000Y-262136000D01*
%TO.N,/SPI_SCK*%
X235844000Y-262390000D02*
X237622000Y-260612000D01*
X359796000Y-268994000D02*
X361574000Y-270772000D01*
X264038480Y-260611520D02*
X268101520Y-260611520D01*
X335158000Y-260612000D02*
X335158480Y-260611520D01*
X191508000Y-230878000D02*
X191762000Y-230624000D01*
X193048000Y-260612000D02*
X191508000Y-259072000D01*
X299598000Y-260612000D02*
X299598480Y-260611520D01*
X253116000Y-268994000D02*
X254894000Y-270772000D01*
X219334000Y-270772000D02*
X224922000Y-270772000D01*
X306964000Y-262390000D02*
X308742000Y-260612000D01*
X217556000Y-268994000D02*
X219334000Y-270772000D01*
X191762000Y-230624000D02*
X191762000Y-227576000D01*
X200284000Y-262390000D02*
X202062000Y-260612000D01*
X378084000Y-262390000D02*
X379862000Y-260612000D01*
X288676000Y-268994000D02*
X290454000Y-270772000D01*
X397134000Y-270772000D02*
X402722000Y-270772000D01*
X370718000Y-260612000D02*
X370718480Y-260611520D01*
X268102000Y-260612000D02*
X269626000Y-260612000D01*
X447429000Y-260612000D02*
X449198520Y-262381520D01*
X430916000Y-268994000D02*
X432694000Y-270772000D01*
X326014000Y-270772000D02*
X331602000Y-270772000D01*
X198506000Y-260612000D02*
X193048000Y-260612000D01*
X411866000Y-260612000D02*
X413644000Y-262390000D01*
X468248520Y-270763520D02*
X473836520Y-270763520D01*
X342524000Y-262390000D02*
X344302000Y-260612000D01*
X379862000Y-260612000D02*
X411866000Y-260612000D01*
X191762000Y-227576000D02*
X190238000Y-226052000D01*
X432694000Y-270772000D02*
X438282000Y-270772000D01*
X237622000Y-260612000D02*
X264038000Y-260612000D01*
X234066000Y-260612000D02*
X235844000Y-262390000D01*
X269626000Y-260612000D02*
X271404000Y-262390000D01*
X191508000Y-259072000D02*
X191508000Y-230878000D01*
X271404000Y-262390000D02*
X273182000Y-260612000D01*
X406278000Y-260612000D02*
X406278480Y-260611520D01*
X466470520Y-268985520D02*
X468248520Y-270763520D01*
X344302000Y-260612000D02*
X376306000Y-260612000D01*
X324236000Y-268994000D02*
X326014000Y-270772000D01*
X190238000Y-226052000D02*
X189984000Y-226052000D01*
X308742000Y-260612000D02*
X340746000Y-260612000D01*
X415422000Y-260612000D02*
X413644000Y-262390000D01*
X264038000Y-260612000D02*
X264038480Y-260611520D01*
X290454000Y-270772000D02*
X296042000Y-270772000D01*
X395356000Y-268994000D02*
X397134000Y-270772000D01*
X305186000Y-260612000D02*
X306964000Y-262390000D01*
X200284000Y-262390000D02*
X198506000Y-260612000D01*
X415422000Y-260612000D02*
X447429000Y-260612000D01*
X361574000Y-270772000D02*
X367162000Y-270772000D01*
X268102000Y-260612000D02*
X267086000Y-260612000D01*
X340746000Y-260612000D02*
X342524000Y-262390000D01*
X202062000Y-260612000D02*
X234066000Y-260612000D01*
X268101520Y-260611520D02*
X268102000Y-260612000D01*
X273182000Y-260612000D02*
X305186000Y-260612000D01*
X376306000Y-260612000D02*
X378084000Y-262390000D01*
X254894000Y-270772000D02*
X260482000Y-270772000D01*
%TO.N,/SPI_MISO*%
X378084000Y-263660000D02*
X380624000Y-261120000D01*
X342524000Y-263660000D02*
X345064000Y-261120000D01*
X326776000Y-268994000D02*
X331602000Y-268994000D01*
X191254000Y-228084000D02*
X190238000Y-227068000D01*
X228478480Y-261119520D02*
X232156000Y-261119520D01*
X362336000Y-268994000D02*
X367162000Y-268994000D01*
X290454000Y-268232000D02*
X291216000Y-268994000D01*
X302776000Y-261120000D02*
X302646000Y-261120000D01*
X370718000Y-261120000D02*
X370718480Y-261119520D01*
X397896000Y-268994000D02*
X402722000Y-268994000D01*
X446667000Y-261120000D02*
X449198520Y-263651520D01*
X306964000Y-263660000D02*
X309504000Y-261120000D01*
X406278000Y-261120000D02*
X406278480Y-261119520D01*
X228478000Y-261120000D02*
X228478480Y-261119520D01*
X303662000Y-261120000D02*
X302776000Y-261120000D01*
X309504000Y-261120000D02*
X339984000Y-261120000D01*
X357510000Y-268232000D02*
X361574000Y-268232000D01*
X232155520Y-261120000D02*
X233304000Y-261120000D01*
X250830000Y-268232000D02*
X254894000Y-268232000D01*
X235844000Y-263660000D02*
X238384000Y-261120000D01*
X202824000Y-261120000D02*
X228478000Y-261120000D01*
X200284000Y-263660000D02*
X197744000Y-261120000D01*
X321950000Y-268232000D02*
X326014000Y-268232000D01*
X433456000Y-268994000D02*
X438282000Y-268994000D01*
X191000000Y-259326000D02*
X191000000Y-230370000D01*
X255656000Y-268994000D02*
X260482000Y-268994000D01*
X464184520Y-268223520D02*
X468248520Y-268223520D01*
X432694000Y-268232000D02*
X433456000Y-268994000D01*
X303276000Y-261119520D02*
X303275520Y-261120000D01*
X469010520Y-268985520D02*
X473836520Y-268985520D01*
X273944000Y-261120000D02*
X299598000Y-261120000D01*
X190238000Y-227068000D02*
X189984000Y-227068000D01*
X380624000Y-261120000D02*
X411104000Y-261120000D01*
X303275520Y-261120000D02*
X302776000Y-261120000D01*
X215270000Y-268232000D02*
X219334000Y-268232000D01*
X339984000Y-261120000D02*
X342524000Y-263660000D01*
X361574000Y-268232000D02*
X362336000Y-268994000D01*
X271404000Y-263660000D02*
X273944000Y-261120000D01*
X232156000Y-261119520D02*
X232155520Y-261120000D01*
X304424000Y-261120000D02*
X306964000Y-263660000D01*
X291216000Y-268994000D02*
X296042000Y-268994000D01*
X254894000Y-268232000D02*
X255656000Y-268994000D01*
X375544000Y-261120000D02*
X378084000Y-263660000D01*
X191000000Y-230370000D02*
X191254000Y-230116000D01*
X468248520Y-268223520D02*
X469010520Y-268985520D01*
X326014000Y-268232000D02*
X326776000Y-268994000D01*
X393070000Y-268232000D02*
X397134000Y-268232000D01*
X397134000Y-268232000D02*
X397896000Y-268994000D01*
X219334000Y-268232000D02*
X220096000Y-268994000D01*
X345064000Y-261120000D02*
X375544000Y-261120000D01*
X192794000Y-261120000D02*
X191000000Y-259326000D01*
X191254000Y-230116000D02*
X191254000Y-228084000D01*
X233304000Y-261120000D02*
X235844000Y-263660000D01*
X299598000Y-261120000D02*
X299598480Y-261119520D01*
X238384000Y-261120000D02*
X268864000Y-261120000D01*
X200284000Y-263660000D02*
X202824000Y-261120000D01*
X299598000Y-261120000D02*
X299598480Y-261119520D01*
X428630000Y-268232000D02*
X432694000Y-268232000D01*
X286390000Y-268232000D02*
X290454000Y-268232000D01*
X411104000Y-261120000D02*
X413644000Y-263660000D01*
X303662000Y-261120000D02*
X304424000Y-261120000D01*
X299598480Y-261119520D02*
X303276000Y-261119520D01*
X335158000Y-261120000D02*
X335158480Y-261119520D01*
X264038000Y-261120000D02*
X264038480Y-261119520D01*
X220096000Y-268994000D02*
X224922000Y-268994000D01*
X413644000Y-263660000D02*
X416184000Y-261120000D01*
X197744000Y-261120000D02*
X192794000Y-261120000D01*
X416184000Y-261120000D02*
X446667000Y-261120000D01*
X268864000Y-261120000D02*
X271404000Y-263660000D01*
%TO.N,/SPI_MOSI*%
X192531520Y-261628000D02*
X192524000Y-261620480D01*
X427360000Y-268994000D02*
X431170000Y-272804000D01*
X232542000Y-261628000D02*
X235844000Y-264930000D01*
X356240000Y-268994000D02*
X360050000Y-272804000D01*
X196095520Y-261628480D02*
X196096000Y-261628000D01*
X267215520Y-261627520D02*
X267216000Y-261628000D01*
X196982000Y-261628000D02*
X196096000Y-261628000D01*
X203840480Y-261627520D02*
X231525520Y-261627520D01*
X239400000Y-261628000D02*
X239400480Y-261627520D01*
X253370000Y-272804000D02*
X260482000Y-272804000D01*
X196982000Y-261628000D02*
X200284000Y-264930000D01*
X192524000Y-261612000D02*
X190491520Y-259579520D01*
X374387520Y-261627520D02*
X374388000Y-261628000D01*
X338827520Y-261627520D02*
X338828000Y-261628000D01*
X417200000Y-261628000D02*
X417200480Y-261627520D01*
X445904520Y-261627520D02*
X449198520Y-264921520D01*
X338828000Y-261628000D02*
X338206000Y-261628000D01*
X310520480Y-261627520D02*
X338827520Y-261627520D01*
X320680000Y-268994000D02*
X324490000Y-272804000D01*
X374782000Y-261628000D02*
X374388000Y-261628000D01*
X339222000Y-261628000D02*
X342524000Y-264930000D01*
X203840000Y-261628000D02*
X203840480Y-261627520D01*
X303030000Y-261628000D02*
X302646000Y-261628000D01*
X274960000Y-261628000D02*
X274960480Y-261627520D01*
X190491520Y-229862000D02*
X190492000Y-229862000D01*
X417200480Y-261627520D02*
X445904520Y-261627520D01*
X381640480Y-261627520D02*
X410341520Y-261627520D01*
X381386000Y-261628000D02*
X381640000Y-261628000D01*
X285120000Y-268994000D02*
X288930000Y-272804000D01*
X192524000Y-261620480D02*
X192524000Y-261612000D01*
X410342000Y-261628000D02*
X413644000Y-264930000D01*
X378084000Y-264930000D02*
X381386000Y-261628000D01*
X339222000Y-261628000D02*
X338828000Y-261628000D01*
X203586000Y-261628000D02*
X203840000Y-261628000D01*
X249560000Y-268994000D02*
X253370000Y-272804000D01*
X303029520Y-261627520D02*
X303030000Y-261628000D01*
X200284000Y-264930000D02*
X203586000Y-261628000D01*
X416946000Y-261628000D02*
X417200000Y-261628000D01*
X271404000Y-264930000D02*
X274706000Y-261628000D01*
X239146000Y-261628000D02*
X239400000Y-261628000D01*
X360050000Y-272804000D02*
X367162000Y-272804000D01*
X231526000Y-261628000D02*
X232542000Y-261628000D01*
X274706000Y-261628000D02*
X274960000Y-261628000D01*
X235844000Y-264930000D02*
X239146000Y-261628000D01*
X303662000Y-261628000D02*
X306964000Y-264930000D01*
X410342000Y-261628000D02*
X409326000Y-261628000D01*
X267216000Y-261628000D02*
X267086000Y-261628000D01*
X274960480Y-261627520D02*
X303029520Y-261627520D01*
X345826000Y-261628000D02*
X346080000Y-261628000D01*
X466724520Y-272795520D02*
X473836520Y-272795520D01*
X268102000Y-261628000D02*
X267216000Y-261628000D01*
X395610000Y-272804000D02*
X402722000Y-272804000D01*
X190746000Y-228592000D02*
X190238000Y-228084000D01*
X310266000Y-261628000D02*
X310520000Y-261628000D01*
X288930000Y-272804000D02*
X296042000Y-272804000D01*
X231525520Y-261627520D02*
X231526000Y-261628000D01*
X190491520Y-259579520D02*
X190491520Y-229862000D01*
X381640000Y-261628000D02*
X381640480Y-261627520D01*
X346080000Y-261628000D02*
X346080480Y-261627520D01*
X239400480Y-261627520D02*
X267215520Y-261627520D01*
X306964000Y-264930000D02*
X310266000Y-261628000D01*
X190238000Y-228084000D02*
X189984000Y-228084000D01*
X303662000Y-261628000D02*
X303030000Y-261628000D01*
X268102000Y-261628000D02*
X271404000Y-264930000D01*
X324490000Y-272804000D02*
X331602000Y-272804000D01*
X462914520Y-268985520D02*
X466724520Y-272795520D01*
X214000000Y-268994000D02*
X217810000Y-272804000D01*
X431170000Y-272804000D02*
X438282000Y-272804000D01*
X346080480Y-261627520D02*
X374387520Y-261627520D01*
X190492000Y-229862000D02*
X190746000Y-229608000D01*
X217810000Y-272804000D02*
X224922000Y-272804000D01*
X391800000Y-268994000D02*
X395610000Y-272804000D01*
X342524000Y-264930000D02*
X345826000Y-261628000D01*
X410341520Y-261627520D02*
X410342000Y-261628000D01*
X310520000Y-261628000D02*
X310520480Y-261627520D01*
X196096000Y-261628000D02*
X192531520Y-261628000D01*
X413644000Y-264930000D02*
X416946000Y-261628000D01*
X374782000Y-261628000D02*
X378084000Y-264930000D01*
X190746000Y-229608000D02*
X190746000Y-228592000D01*
X374388000Y-261628000D02*
X373766000Y-261628000D01*
%TO.N,Net-(C16-Pad2)*%
X159004000Y-279908000D02*
X157988000Y-279908000D01*
X157226000Y-279146000D02*
X157226000Y-272796000D01*
X157988000Y-279908000D02*
X157226000Y-279146000D01*
%TO.N,Net-(C9-Pad2)*%
X188468000Y-279908000D02*
X187452000Y-279908000D01*
X187452000Y-279908000D02*
X186690000Y-279146000D01*
X186690000Y-279146000D02*
X186690000Y-272796000D01*
%TO.N,/I2C_SDA_0*%
X189738000Y-202946000D02*
X203962000Y-202946000D01*
X184421500Y-209701500D02*
X184421500Y-208262500D01*
X198374000Y-224028000D02*
X198374000Y-241046000D01*
X187706000Y-204978000D02*
X189738000Y-202946000D01*
X184421500Y-208262500D02*
X187706000Y-204978000D01*
%TO.N,/I2C_SCL_0*%
X189738000Y-205740000D02*
X193802000Y-205740000D01*
X193802000Y-205740000D02*
X203962000Y-205740000D01*
X199390000Y-224028000D02*
X199390000Y-241046000D01*
X186961500Y-208516500D02*
X187198000Y-208280000D01*
X186961500Y-209701500D02*
X186961500Y-208516500D01*
X187198000Y-208280000D02*
X189738000Y-205740000D01*
%TO.N,/I2C_SDA_1*%
X194056000Y-208534000D02*
X203962000Y-208534000D01*
X200406000Y-224028000D02*
X200406000Y-241046000D01*
X189501500Y-209701500D02*
X189501500Y-208516500D01*
X189501500Y-208516500D02*
X190246000Y-207772000D01*
X193802000Y-208280000D02*
X194056000Y-208534000D01*
X190246000Y-207772000D02*
X193294000Y-207772000D01*
X193294000Y-207772000D02*
X193802000Y-208280000D01*
%TO.N,/I2C_SCL_1*%
X192041500Y-209701500D02*
X193668000Y-211328000D01*
X201422000Y-224028000D02*
X201422000Y-241046000D01*
X193668000Y-211328000D02*
X203962000Y-211328000D01*
%TO.N,/I2C_SDA_2*%
X214273406Y-241046000D02*
X214273406Y-252627406D01*
X207577111Y-214818076D02*
X214273406Y-221514371D01*
X214273406Y-252627406D02*
X214376000Y-252730000D01*
X214273406Y-221514371D02*
X214273406Y-241046000D01*
X207570944Y-214818076D02*
X207577111Y-214818076D01*
%TO.N,/I2C_SCL_2*%
X207568008Y-215849992D02*
X213308703Y-221590687D01*
X213308703Y-221590687D02*
X213308703Y-240843297D01*
X213308703Y-251916703D02*
X213360000Y-251968000D01*
X213308703Y-240843297D02*
X213308703Y-251916703D01*
%TO.N,/I2C_SDA_3*%
X207555506Y-216878494D02*
X212344000Y-221666988D01*
X212344000Y-221666988D02*
X212344000Y-251206000D01*
%TO.N,/I2C_SCL_3*%
X207543004Y-217906996D02*
X211376812Y-221740804D01*
X211376812Y-241046000D02*
X211376812Y-250395188D01*
X211376812Y-221740804D02*
X211376812Y-241046000D01*
X211376812Y-250395188D02*
X211328000Y-250444000D01*
%TO.N,/I2C_SDA_4*%
X210412109Y-249581891D02*
X210312000Y-249682000D01*
X207555521Y-218935498D02*
X210412109Y-221792086D01*
X210412109Y-221792086D02*
X210412109Y-241046000D01*
X210412109Y-241046000D02*
X210412109Y-249581891D01*
X207530502Y-218935498D02*
X207555521Y-218935498D01*
%TO.N,/I2C_SCL_4*%
X207555521Y-219951498D02*
X209447406Y-221843383D01*
X207530502Y-219951498D02*
X207555521Y-219951498D01*
X209447406Y-241046000D02*
X209447406Y-247752594D01*
X209447406Y-247752594D02*
X209447406Y-248768594D01*
X209447406Y-248768594D02*
X209296000Y-248920000D01*
X209447406Y-221843383D02*
X209447406Y-241046000D01*
%TO.N,/I2C_SDA_5*%
X208482703Y-221919699D02*
X208482703Y-241046000D01*
X208482703Y-241046000D02*
X208482703Y-247955297D01*
X208482703Y-247955297D02*
X208280000Y-248158000D01*
X207530502Y-220967498D02*
X208482703Y-221919699D01*
%TO.N,/I2C_SCL_5*%
X207505490Y-221983490D02*
X207505490Y-241033490D01*
X207518000Y-246126000D02*
X207518000Y-247396000D01*
X207505490Y-241033490D02*
X207518000Y-241046000D01*
X207518000Y-241046000D02*
X207518000Y-246126000D01*
%TO.N,/I2C_SDA_6*%
X194437000Y-194564000D02*
X200279000Y-188722000D01*
X173228000Y-194564000D02*
X194437000Y-194564000D01*
X205486000Y-241046000D02*
X205486000Y-246634000D01*
X171721500Y-191921500D02*
X171721500Y-193057500D01*
X171721500Y-193057500D02*
X173228000Y-194564000D01*
X200279000Y-171704000D02*
X202565000Y-169418000D01*
X200279000Y-188722000D02*
X200279000Y-171704000D01*
X205486000Y-224028000D02*
X205486000Y-241046000D01*
%TO.N,/I2C_SCL_6*%
X200787000Y-180213000D02*
X200787000Y-173990000D01*
X200787000Y-173990000D02*
X202565000Y-172212000D01*
X204470000Y-241046000D02*
X204470000Y-245872000D01*
X200787000Y-188931742D02*
X200787000Y-180213000D01*
X200701371Y-189017371D02*
X200787000Y-188931742D01*
X204470000Y-224028000D02*
X204470000Y-241046000D01*
X172332000Y-195072000D02*
X175514000Y-195072000D01*
X169181500Y-191921500D02*
X172332000Y-195072000D01*
X194646742Y-195072000D02*
X200701371Y-189017371D01*
X175514000Y-195072000D02*
X194646742Y-195072000D01*
%TO.N,/I2C_SDA_7*%
X201294520Y-176276480D02*
X201294520Y-189230480D01*
X202565000Y-175006000D02*
X201294520Y-176276480D01*
X203454000Y-224028000D02*
X203454000Y-241046000D01*
X194945480Y-195579520D02*
X170299520Y-195579520D01*
X203454000Y-241046000D02*
X203454000Y-245110000D01*
X170299520Y-195579520D02*
X166641500Y-191921500D01*
X201294520Y-189230480D02*
X194945480Y-195579520D01*
%TO.N,/I2C_SCL_7*%
X201802040Y-180086960D02*
X201803000Y-180086000D01*
X201802040Y-189440702D02*
X201802040Y-185293000D01*
X202565000Y-177800000D02*
X201803000Y-178562000D01*
X195154742Y-196088000D02*
X199304371Y-191938371D01*
X202438000Y-224028000D02*
X202438000Y-241046000D01*
X201803000Y-178562000D02*
X201803000Y-178816000D01*
X164101500Y-191921500D02*
X168268000Y-196088000D01*
X201803000Y-180086000D02*
X201803000Y-178816000D01*
X201802040Y-185293000D02*
X201802040Y-180086960D01*
X172847000Y-196088000D02*
X195154742Y-196088000D01*
X202438000Y-241046000D02*
X202438000Y-244348000D01*
X199304371Y-191938371D02*
X201802040Y-189440702D01*
X168268000Y-196088000D02*
X172847000Y-196088000D01*
%TO.N,Net-(J2-Pad1)*%
X130048000Y-258587000D02*
X132827000Y-261366000D01*
X158813000Y-259048500D02*
X159004000Y-259048500D01*
X157988000Y-258223500D02*
X158813000Y-259048500D01*
X156972000Y-258223500D02*
X157988000Y-258223500D01*
X153829500Y-261366000D02*
X156972000Y-258223500D01*
X132827000Y-261366000D02*
X153829500Y-261366000D01*
%TO.N,Net-(J2-Pad2)*%
X130048000Y-261127000D02*
X130795000Y-261874000D01*
X154654500Y-261874000D02*
X157480000Y-259048500D01*
X130795000Y-261874000D02*
X154654500Y-261874000D01*
%TO.N,/INT*%
X134874000Y-228092000D02*
X144982000Y-238200000D01*
X153481500Y-156144500D02*
X177871100Y-156144500D01*
X127000000Y-213868000D02*
X150368000Y-190500000D01*
X150368000Y-190500000D02*
X150368000Y-159258000D01*
X127000000Y-225044000D02*
X127000000Y-213868000D01*
X144780000Y-241300000D02*
X144982000Y-241300000D01*
X150368000Y-159258000D02*
X153481500Y-156144500D01*
X130048000Y-228092000D02*
X127000000Y-225044000D01*
X144982000Y-238200000D02*
X144982000Y-241300000D01*
%TO.N,/BOARD_ID_1*%
X182626000Y-250698000D02*
X182626000Y-248412000D01*
X169925520Y-253492480D02*
X179831520Y-253492480D01*
X200072148Y-281325654D02*
X200072148Y-281352147D01*
X182626000Y-241046000D02*
X182626000Y-223774000D01*
X182626000Y-223774000D02*
X178158871Y-219306871D01*
X178158871Y-219306871D02*
X171248871Y-219306871D01*
X168148000Y-255270000D02*
X169925520Y-253492480D01*
X203741901Y-277655901D02*
X205807801Y-275590000D01*
X203741901Y-277655901D02*
X200072148Y-281325654D01*
X168148000Y-276098000D02*
X168148000Y-255270000D01*
X255524000Y-275590000D02*
X256286000Y-274828000D01*
X205807801Y-275590000D02*
X255524000Y-275590000D01*
X175260000Y-283210000D02*
X168148000Y-276098000D01*
X171248871Y-219306871D02*
X167842000Y-215900000D01*
X198214295Y-283210000D02*
X175260000Y-283210000D01*
X203227120Y-278170681D02*
X203741901Y-277655901D01*
X179831520Y-253492480D02*
X182626000Y-250698000D01*
X200072148Y-281352147D02*
X198214295Y-283210000D01*
%TO.N,/BROADCAST*%
X445896520Y-254761520D02*
X444880520Y-254761520D01*
X447674520Y-254761520D02*
X448182520Y-254761520D01*
X412628000Y-254770000D02*
X445888040Y-254770000D01*
X196596000Y-227838000D02*
X196596000Y-228854000D01*
X270388000Y-254770000D02*
X305948000Y-254770000D01*
X196596000Y-252098000D02*
X199268000Y-254770000D01*
X181864000Y-213106000D02*
X186690000Y-217932000D01*
X155956000Y-213106000D02*
X181864000Y-213106000D01*
X445896520Y-254761520D02*
X447674520Y-254761520D01*
X191516000Y-222758000D02*
X196596000Y-227838000D01*
X155142000Y-213920000D02*
X155956000Y-213106000D01*
X155142000Y-215900000D02*
X155142000Y-213920000D01*
X270388000Y-254770000D02*
X234828000Y-254770000D01*
X374782000Y-254770000D02*
X374912000Y-254770000D01*
X341508000Y-254770000D02*
X374912000Y-254770000D01*
X376560000Y-254770000D02*
X377068000Y-254770000D01*
X377068000Y-254770000D02*
X412628000Y-254770000D01*
X305948000Y-254770000D02*
X341508000Y-254770000D01*
X196596000Y-228854000D02*
X196596000Y-252098000D01*
X199268000Y-254770000D02*
X234828000Y-254770000D01*
X445888040Y-254770000D02*
X445896520Y-254761520D01*
X374782000Y-254770000D02*
X373766000Y-254770000D01*
X374912000Y-254770000D02*
X376560000Y-254770000D01*
%TO.N,/BOARD_ID_7*%
X165100000Y-277533483D02*
X165100000Y-254508000D01*
X233426000Y-278638000D02*
X233680000Y-278638000D01*
X173824516Y-286258000D02*
X165100000Y-277533483D01*
X233426000Y-278638000D02*
X210566000Y-278638000D01*
X465836000Y-278638000D02*
X469646000Y-274828000D01*
X202946000Y-286258000D02*
X173824516Y-286258000D01*
X165100000Y-254508000D02*
X161290000Y-250698000D01*
X233426000Y-278638000D02*
X465836000Y-278638000D01*
X161290000Y-250698000D02*
X152146000Y-250698000D01*
X210566000Y-278638000D02*
X202946000Y-286258000D01*
X152146000Y-250698000D02*
X151384000Y-251460000D01*
%TO.N,/BOARD_ID_6*%
X209617801Y-278130000D02*
X430784000Y-278130000D01*
X151384000Y-250190000D02*
X161544000Y-250190000D01*
X165607520Y-254253520D02*
X165607520Y-277323261D01*
X174033779Y-285749520D02*
X201998281Y-285749519D01*
X201998281Y-285749519D02*
X207678900Y-280068900D01*
X207678900Y-280068900D02*
X209617801Y-278130000D01*
X206529120Y-281218681D02*
X207678900Y-280068900D01*
X430784000Y-278130000D02*
X434086000Y-274828000D01*
X161544000Y-250190000D02*
X165607520Y-254253520D01*
X165607520Y-277323261D02*
X174033779Y-285749520D01*
%TO.N,/BOARD_ID_5*%
X163118951Y-221336951D02*
X157682000Y-215900000D01*
X166116000Y-254254000D02*
X168909520Y-251460480D01*
X166116000Y-277114000D02*
X166116000Y-254254000D01*
X208788000Y-277622000D02*
X201168000Y-285242000D01*
X201168000Y-285242000D02*
X174244000Y-285242000D01*
X177799520Y-251460480D02*
X178562000Y-250698000D01*
X174244000Y-285242000D02*
X166116000Y-277114000D01*
X395732000Y-277622000D02*
X208788000Y-277622000D01*
X398526000Y-274828000D02*
X395732000Y-277622000D01*
X178562000Y-241046000D02*
X178562000Y-223774000D01*
X178562000Y-250698000D02*
X178562000Y-248412000D01*
X168909520Y-251460480D02*
X177799520Y-251460480D01*
X176124951Y-221336951D02*
X163118951Y-221336951D01*
X178562000Y-223774000D02*
X176124951Y-221336951D01*
%TO.N,/BOARD_ID_3*%
X199644000Y-284226000D02*
X174752000Y-284226000D01*
X167183911Y-220321911D02*
X162762000Y-215900000D01*
X174752000Y-284226000D02*
X167132000Y-276606000D01*
X169418480Y-252475520D02*
X178816480Y-252475520D01*
X325628000Y-276606000D02*
X207264000Y-276606000D01*
X180594000Y-241046000D02*
X180594000Y-223774000D01*
X167132000Y-276606000D02*
X167132000Y-254762000D01*
X180594000Y-250698000D02*
X180594000Y-248412000D01*
X177141911Y-220321911D02*
X167183911Y-220321911D01*
X180594000Y-223774000D02*
X177141911Y-220321911D01*
X167132000Y-254762000D02*
X169418480Y-252475520D01*
X207264000Y-276606000D02*
X199644000Y-284226000D01*
X327406000Y-274828000D02*
X325628000Y-276606000D01*
X178816480Y-252475520D02*
X180594000Y-250698000D01*
%TO.N,/BOARD_ID_4*%
X179578000Y-223774000D02*
X176633431Y-220829431D01*
X165151431Y-220829431D02*
X160222000Y-215900000D01*
X178308000Y-251968000D02*
X179578000Y-250698000D01*
X179578000Y-241046000D02*
X179578000Y-223774000D01*
X169164000Y-251968000D02*
X178308000Y-251968000D01*
X166624000Y-254508000D02*
X169164000Y-251968000D01*
X200406000Y-284734000D02*
X174498000Y-284734000D01*
X174498000Y-284734000D02*
X166624000Y-276860000D01*
X360680000Y-277114000D02*
X208026000Y-277114000D01*
X362966000Y-274828000D02*
X360680000Y-277114000D01*
X179578000Y-250698000D02*
X179578000Y-248412000D01*
X176633431Y-220829431D02*
X165151431Y-220829431D01*
X166624000Y-276860000D02*
X166624000Y-254508000D01*
X208026000Y-277114000D02*
X200406000Y-284734000D01*
%TO.N,/BOARD_ID_0*%
X175514000Y-282702000D02*
X168656000Y-275844000D01*
X220726000Y-274828000D02*
X205232000Y-274828000D01*
X183642000Y-241046000D02*
X183642000Y-223774000D01*
X197358000Y-282702000D02*
X175514000Y-282702000D01*
X183642000Y-223774000D02*
X178562000Y-218694000D01*
X183642000Y-250698000D02*
X183642000Y-248412000D01*
X180340000Y-254000000D02*
X183642000Y-250698000D01*
X168656000Y-275844000D02*
X168656000Y-255524000D01*
X170180000Y-254000000D02*
X180340000Y-254000000D01*
X205232000Y-274828000D02*
X197358000Y-282702000D01*
X173176000Y-218694000D02*
X170382000Y-215900000D01*
X168656000Y-255524000D02*
X170180000Y-254000000D01*
X178562000Y-218694000D02*
X173176000Y-218694000D01*
%TO.N,/BOARD_ID_2*%
X169216391Y-219814391D02*
X165302000Y-215900000D01*
X167640000Y-255016000D02*
X169671035Y-252984965D01*
X206502000Y-276098000D02*
X198882000Y-283718000D01*
X177650391Y-219814391D02*
X169216391Y-219814391D01*
X181610000Y-223774000D02*
X177650391Y-219814391D01*
X179323035Y-252984965D02*
X181610000Y-250698000D01*
X181610000Y-250698000D02*
X181610000Y-248412000D01*
X198882000Y-283718000D02*
X175006000Y-283718000D01*
X290830000Y-276098000D02*
X206502000Y-276098000D01*
X169671035Y-252984965D02*
X179323035Y-252984965D01*
X175006000Y-283718000D02*
X167640000Y-276352000D01*
X292100000Y-274828000D02*
X290830000Y-276098000D01*
X167640000Y-276352000D02*
X167640000Y-255016000D01*
X181610000Y-241046000D02*
X181610000Y-223774000D01*
%TO.N,/Button_0*%
X195072000Y-156972000D02*
X196850000Y-156972000D01*
X196850000Y-156972000D02*
X198627520Y-158749520D01*
X198627520Y-178314080D02*
X191841100Y-185100500D01*
X198627520Y-158749520D02*
X198627520Y-178314080D01*
%TO.N,/Button_1*%
X196342000Y-158750000D02*
X198120000Y-160528000D01*
X198120000Y-160528000D02*
X198120000Y-176276000D01*
X191841100Y-182560500D02*
X198120000Y-176281600D01*
X198120000Y-176281600D02*
X198120000Y-176276000D01*
%TO.N,/LED_0*%
X167894000Y-173482000D02*
X167894000Y-176477561D01*
X174055500Y-167320500D02*
X167894000Y-173482000D01*
X174061660Y-167320500D02*
X174055500Y-167320500D01*
%TO.N,/LED_1*%
X168910000Y-176477561D02*
X168910000Y-175012160D01*
X168910000Y-175012160D02*
X174061660Y-169860500D01*
%TO.N,/LED_2*%
X169978433Y-176477567D02*
X169926000Y-176477567D01*
X174055500Y-172400500D02*
X169978433Y-176477567D01*
X174061660Y-172400500D02*
X174055500Y-172400500D01*
%TO.N,/LED_4*%
X181864000Y-171450000D02*
X181864000Y-171958000D01*
X183388480Y-176783760D02*
X182691740Y-177480500D01*
X182691740Y-177480500D02*
X174061660Y-177480500D01*
X181864000Y-171958000D02*
X183388480Y-173482480D01*
X183388480Y-173482480D02*
X183388480Y-176783760D01*
%TO.N,/LED_5*%
X183896000Y-172974000D02*
X183896000Y-177082258D01*
X183896000Y-177082258D02*
X180957758Y-180020500D01*
X182880000Y-171450000D02*
X182880000Y-171958000D01*
X180957758Y-180020500D02*
X174061660Y-180020500D01*
X182880000Y-171958000D02*
X183896000Y-172974000D01*
%TO.N,/LED_6*%
X183896000Y-171958000D02*
X184404000Y-172466000D01*
X183896000Y-171450000D02*
X183896000Y-171958000D01*
X184404000Y-177292000D02*
X179135500Y-182560500D01*
X184404000Y-172466000D02*
X184404000Y-177292000D01*
X179135500Y-182560500D02*
X174061660Y-182560500D01*
%TO.N,/LED_7*%
X177357500Y-185100500D02*
X184912000Y-177546000D01*
X184912000Y-177546000D02*
X184912000Y-171450000D01*
X174061660Y-185100500D02*
X177357500Y-185100500D01*
D23*
%TO.N,Net-(JP1-Pad2)*%
X180340000Y-215900000D02*
X175462000Y-215900000D01*
X135128000Y-246126000D02*
X183642000Y-246126000D01*
X186436000Y-243332000D02*
X186436000Y-221996000D01*
X183642000Y-246126000D02*
X186436000Y-243332000D01*
X186436000Y-221996000D02*
X180340000Y-215900000D01*
%TO.N,Net-(JP2-Pad2)*%
X127000000Y-243078000D02*
X130048000Y-246126000D01*
X127000000Y-235458000D02*
X127000000Y-243078000D01*
X132588000Y-226314000D02*
X132588000Y-229870000D01*
X132588000Y-229870000D02*
X127000000Y-235458000D01*
X129742000Y-215900000D02*
X129742000Y-223468000D01*
X129742000Y-223468000D02*
X132588000Y-226314000D01*
%TD*%
M02*
