%TF.GenerationSoftware,KiCad,Pcbnew,(6.0.1-0)*%
%TF.CreationDate,2022-11-03T20:07:30-07:00*%
%TF.ProjectId,core_board,636f7265-5f62-46f6-9172-642e6b696361,rev?*%
%TF.SameCoordinates,Original*%
%TF.FileFunction,Paste,Top*%
%TF.FilePolarity,Positive*%
%FSLAX46Y46*%
G04 Gerber Fmt 4.6, Leading zero omitted, Abs format (unit mm)*
G04 Created by KiCad (PCBNEW (6.0.1-0)) date 2022-11-03 20:07:30*
%MOMM*%
%LPD*%
G01*
G04 APERTURE LIST*
G04 Aperture macros list*
%AMRoundRect*
0 Rectangle with rounded corners*
0 $1 Rounding radius*
0 $2 $3 $4 $5 $6 $7 $8 $9 X,Y pos of 4 corners*
0 Add a 4 corners polygon primitive as box body*
4,1,4,$2,$3,$4,$5,$6,$7,$8,$9,$2,$3,0*
0 Add four circle primitives for the rounded corners*
1,1,$1+$1,$2,$3*
1,1,$1+$1,$4,$5*
1,1,$1+$1,$6,$7*
1,1,$1+$1,$8,$9*
0 Add four rect primitives between the rounded corners*
20,1,$1+$1,$2,$3,$4,$5,0*
20,1,$1+$1,$4,$5,$6,$7,0*
20,1,$1+$1,$6,$7,$8,$9,0*
20,1,$1+$1,$8,$9,$2,$3,0*%
G04 Aperture macros list end*
%ADD10C,0.010000*%
%ADD11RoundRect,0.225000X-0.250000X0.225000X-0.250000X-0.225000X0.250000X-0.225000X0.250000X0.225000X0*%
%ADD12RoundRect,0.200000X0.200000X0.275000X-0.200000X0.275000X-0.200000X-0.275000X0.200000X-0.275000X0*%
%ADD13RoundRect,0.200000X-0.200000X-0.275000X0.200000X-0.275000X0.200000X0.275000X-0.200000X0.275000X0*%
%ADD14R,1.050000X0.650000*%
%ADD15RoundRect,0.006000X0.294000X-0.769000X0.294000X0.769000X-0.294000X0.769000X-0.294000X-0.769000X0*%
%ADD16RoundRect,0.200000X0.275000X-0.200000X0.275000X0.200000X-0.275000X0.200000X-0.275000X-0.200000X0*%
%ADD17RoundRect,0.250000X-0.650000X0.325000X-0.650000X-0.325000X0.650000X-0.325000X0.650000X0.325000X0*%
%ADD18R,1.200000X0.500000*%
%ADD19RoundRect,0.225000X-0.225000X-0.250000X0.225000X-0.250000X0.225000X0.250000X-0.225000X0.250000X0*%
%ADD20RoundRect,0.200000X-0.275000X0.200000X-0.275000X-0.200000X0.275000X-0.200000X0.275000X0.200000X0*%
%ADD21RoundRect,0.225000X0.225000X0.250000X-0.225000X0.250000X-0.225000X-0.250000X0.225000X-0.250000X0*%
%ADD22R,1.800000X2.500000*%
%ADD23RoundRect,0.218750X-0.218750X-0.256250X0.218750X-0.256250X0.218750X0.256250X-0.218750X0.256250X0*%
%ADD24RoundRect,0.218750X0.256250X-0.218750X0.256250X0.218750X-0.256250X0.218750X-0.256250X-0.218750X0*%
%ADD25RoundRect,0.450000X0.550000X0.450000X-0.550000X0.450000X-0.550000X-0.450000X0.550000X-0.450000X0*%
G04 APERTURE END LIST*
D10*
%TO.C,U9*%
X159336000Y-276691000D02*
X159336000Y-273981000D01*
X159336000Y-273981000D02*
X162736000Y-273981000D01*
X162736000Y-273981000D02*
X162736000Y-276691000D01*
X162736000Y-276691000D02*
X159336000Y-276691000D01*
G36*
X162736000Y-276691000D02*
G01*
X159336000Y-276691000D01*
X159336000Y-273981000D01*
X162736000Y-273981000D01*
X162736000Y-276691000D01*
G37*
X162736000Y-276691000D02*
X159336000Y-276691000D01*
X159336000Y-273981000D01*
X162736000Y-273981000D01*
X162736000Y-276691000D01*
%TO.C,U8*%
X188800000Y-276691000D02*
X188800000Y-273981000D01*
X188800000Y-273981000D02*
X192200000Y-273981000D01*
X192200000Y-273981000D02*
X192200000Y-276691000D01*
X192200000Y-276691000D02*
X188800000Y-276691000D01*
G36*
X192200000Y-276691000D02*
G01*
X188800000Y-276691000D01*
X188800000Y-273981000D01*
X192200000Y-273981000D01*
X192200000Y-276691000D01*
G37*
X192200000Y-276691000D02*
X188800000Y-276691000D01*
X188800000Y-273981000D01*
X192200000Y-273981000D01*
X192200000Y-276691000D01*
%TD*%
D11*
%TO.C,C18*%
X164084000Y-268719000D03*
X164084000Y-270269000D03*
%TD*%
D12*
%TO.C,R26*%
X207581000Y-211328000D03*
X205931000Y-211328000D03*
%TD*%
%TO.C,R45*%
X161861000Y-284226000D03*
X160211000Y-284226000D03*
%TD*%
D13*
%TO.C,R49*%
X160465000Y-266192000D03*
X162115000Y-266192000D03*
%TD*%
D14*
%TO.C,SW1*%
X135085000Y-143451000D03*
X139235000Y-143451000D03*
X139235000Y-145601000D03*
X135085000Y-145601000D03*
%TD*%
D15*
%TO.C,U9*%
X159131000Y-278036000D03*
X160401000Y-278036000D03*
X161671000Y-278036000D03*
X162941000Y-278036000D03*
X162941000Y-272636000D03*
X161671000Y-272636000D03*
X160401000Y-272636000D03*
X159131000Y-272636000D03*
%TD*%
D16*
%TO.C,R16*%
X146558000Y-247967000D03*
X146558000Y-246317000D03*
%TD*%
D17*
%TO.C,C15*%
X143256000Y-272288000D03*
X143256000Y-275238000D03*
%TD*%
D14*
%TO.C,SW8*%
X192575000Y-143451000D03*
X188425000Y-143451000D03*
X192575000Y-145601000D03*
X188425000Y-145601000D03*
%TD*%
D18*
%TO.C,J10*%
X475356000Y-264794600D03*
X475356000Y-265794600D03*
X475356000Y-266794600D03*
X475356000Y-267794600D03*
X475356000Y-268794600D03*
X475356000Y-269794600D03*
X475356000Y-270794600D03*
X475356000Y-271794600D03*
X475356000Y-272794600D03*
X475356000Y-273794600D03*
X475356000Y-274794600D03*
X475356000Y-277794600D03*
X475356000Y-278794600D03*
X475356000Y-279794600D03*
X475356000Y-280794600D03*
X475356000Y-281794600D03*
X475356000Y-282794600D03*
X475356000Y-283794600D03*
X471556000Y-264794600D03*
X471556000Y-265794600D03*
X471556000Y-266794600D03*
X471556000Y-267794600D03*
X471556000Y-268794600D03*
X471556000Y-269794600D03*
X471556000Y-270794600D03*
X471556000Y-271794600D03*
X471556000Y-272794600D03*
X471556000Y-273794600D03*
X471556000Y-274794600D03*
X471556000Y-277794600D03*
X471556000Y-278794600D03*
X471556000Y-279794600D03*
X471556000Y-280794600D03*
X471556000Y-281794600D03*
X471556000Y-282794600D03*
X471556000Y-283794600D03*
%TD*%
D17*
%TO.C,C7*%
X172720000Y-272288000D03*
X172720000Y-275238000D03*
%TD*%
D19*
%TO.C,C10*%
X189979000Y-270256000D03*
X191529000Y-270256000D03*
%TD*%
D16*
%TO.C,R22*%
X170434000Y-247967000D03*
X170434000Y-246317000D03*
%TD*%
%TO.C,R2*%
X158242000Y-256825500D03*
X158242000Y-255175500D03*
%TD*%
D20*
%TO.C,R6*%
X148590000Y-149035000D03*
X148590000Y-150685000D03*
%TD*%
D12*
%TO.C,R25*%
X207581000Y-208534000D03*
X205931000Y-208534000D03*
%TD*%
D14*
%TO.C,SW7*%
X180805000Y-143451000D03*
X184955000Y-143451000D03*
X180805000Y-145601000D03*
X184955000Y-145601000D03*
%TD*%
D21*
%TO.C,C12*%
X160287000Y-282194000D03*
X158737000Y-282194000D03*
%TD*%
%TO.C,C4*%
X148844000Y-252984000D03*
X147294000Y-252984000D03*
%TD*%
D19*
%TO.C,C17*%
X160515000Y-270256000D03*
X162065000Y-270256000D03*
%TD*%
D12*
%TO.C,R40*%
X194881000Y-284226000D03*
X193231000Y-284226000D03*
%TD*%
D17*
%TO.C,C8*%
X175514000Y-272288000D03*
X175514000Y-275238000D03*
%TD*%
D21*
%TO.C,C3*%
X178321000Y-252984000D03*
X176771000Y-252984000D03*
%TD*%
D18*
%TO.C,J8*%
X439796000Y-264794600D03*
X439796000Y-265794600D03*
X439796000Y-266794600D03*
X439796000Y-267794600D03*
X439796000Y-268794600D03*
X439796000Y-269794600D03*
X439796000Y-270794600D03*
X439796000Y-271794600D03*
X439796000Y-272794600D03*
X439796000Y-273794600D03*
X439796000Y-274794600D03*
X439796000Y-277794600D03*
X439796000Y-278794600D03*
X439796000Y-279794600D03*
X439796000Y-280794600D03*
X439796000Y-281794600D03*
X439796000Y-282794600D03*
X439796000Y-283794600D03*
X435996000Y-264794600D03*
X435996000Y-265794600D03*
X435996000Y-266794600D03*
X435996000Y-267794600D03*
X435996000Y-268794600D03*
X435996000Y-269794600D03*
X435996000Y-270794600D03*
X435996000Y-271794600D03*
X435996000Y-272794600D03*
X435996000Y-273794600D03*
X435996000Y-274794600D03*
X435996000Y-277794600D03*
X435996000Y-278794600D03*
X435996000Y-279794600D03*
X435996000Y-280794600D03*
X435996000Y-281794600D03*
X435996000Y-282794600D03*
X435996000Y-283794600D03*
%TD*%
D21*
%TO.C,C13*%
X165367000Y-280162000D03*
X163817000Y-280162000D03*
%TD*%
D19*
%TO.C,C1*%
X171691000Y-252984000D03*
X173241000Y-252984000D03*
%TD*%
D22*
%TO.C,D10*%
X181356000Y-270891000D03*
X181356000Y-274891000D03*
%TD*%
D23*
%TO.C,D3*%
X143992500Y-149098000D03*
X145567500Y-149098000D03*
%TD*%
D20*
%TO.C,R11*%
X179070000Y-149035000D03*
X179070000Y-150685000D03*
%TD*%
%TO.C,R5*%
X140970000Y-149035000D03*
X140970000Y-150685000D03*
%TD*%
D12*
%TO.C,R24*%
X207581000Y-205740000D03*
X205931000Y-205740000D03*
%TD*%
%TO.C,R48*%
X150177000Y-261112000D03*
X148527000Y-261112000D03*
%TD*%
D18*
%TO.C,J3*%
X226436000Y-264794600D03*
X226436000Y-265794600D03*
X226436000Y-266794600D03*
X226436000Y-267794600D03*
X226436000Y-268794600D03*
X226436000Y-269794600D03*
X226436000Y-270794600D03*
X226436000Y-271794600D03*
X226436000Y-272794600D03*
X226436000Y-273794600D03*
X226436000Y-274794600D03*
X226436000Y-277794600D03*
X226436000Y-278794600D03*
X226436000Y-279794600D03*
X226436000Y-280794600D03*
X226436000Y-281794600D03*
X226436000Y-282794600D03*
X226436000Y-283794600D03*
X222636000Y-264794600D03*
X222636000Y-265794600D03*
X222636000Y-266794600D03*
X222636000Y-267794600D03*
X222636000Y-268794600D03*
X222636000Y-269794600D03*
X222636000Y-270794600D03*
X222636000Y-271794600D03*
X222636000Y-272794600D03*
X222636000Y-273794600D03*
X222636000Y-274794600D03*
X222636000Y-277794600D03*
X222636000Y-278794600D03*
X222636000Y-279794600D03*
X222636000Y-280794600D03*
X222636000Y-281794600D03*
X222636000Y-282794600D03*
X222636000Y-283794600D03*
%TD*%
D12*
%TO.C,R36*%
X207581000Y-172212000D03*
X205931000Y-172212000D03*
%TD*%
%TO.C,R39*%
X191325000Y-284226000D03*
X189675000Y-284226000D03*
%TD*%
%TO.C,R32*%
X207581000Y-186182000D03*
X205931000Y-186182000D03*
%TD*%
%TO.C,R42*%
X179641000Y-261112000D03*
X177991000Y-261112000D03*
%TD*%
D23*
%TO.C,D8*%
X182092500Y-149098000D03*
X183667500Y-149098000D03*
%TD*%
D12*
%TO.C,R29*%
X207581000Y-194564000D03*
X205931000Y-194564000D03*
%TD*%
%TO.C,R23*%
X207581000Y-202946000D03*
X205931000Y-202946000D03*
%TD*%
%TO.C,R34*%
X207581000Y-180594000D03*
X205931000Y-180594000D03*
%TD*%
D23*
%TO.C,D5*%
X159232500Y-149098000D03*
X160807500Y-149098000D03*
%TD*%
D12*
%TO.C,R37*%
X207581000Y-175006000D03*
X205931000Y-175006000D03*
%TD*%
%TO.C,R31*%
X207581000Y-188976000D03*
X205931000Y-188976000D03*
%TD*%
%TO.C,R47*%
X165417000Y-282194000D03*
X163767000Y-282194000D03*
%TD*%
D13*
%TO.C,R17*%
X209868000Y-154178000D03*
X211518000Y-154178000D03*
%TD*%
D18*
%TO.C,J5*%
X261996000Y-264794600D03*
X261996000Y-265794600D03*
X261996000Y-266794600D03*
X261996000Y-267794600D03*
X261996000Y-268794600D03*
X261996000Y-269794600D03*
X261996000Y-270794600D03*
X261996000Y-271794600D03*
X261996000Y-272794600D03*
X261996000Y-273794600D03*
X261996000Y-274794600D03*
X261996000Y-277794600D03*
X261996000Y-278794600D03*
X261996000Y-279794600D03*
X261996000Y-280794600D03*
X261996000Y-281794600D03*
X261996000Y-282794600D03*
X261996000Y-283794600D03*
X258196000Y-264794600D03*
X258196000Y-265794600D03*
X258196000Y-266794600D03*
X258196000Y-267794600D03*
X258196000Y-268794600D03*
X258196000Y-269794600D03*
X258196000Y-270794600D03*
X258196000Y-271794600D03*
X258196000Y-272794600D03*
X258196000Y-273794600D03*
X258196000Y-274794600D03*
X258196000Y-277794600D03*
X258196000Y-278794600D03*
X258196000Y-279794600D03*
X258196000Y-280794600D03*
X258196000Y-281794600D03*
X258196000Y-282794600D03*
X258196000Y-283794600D03*
%TD*%
%TO.C,J4*%
X368676000Y-264794600D03*
X368676000Y-265794600D03*
X368676000Y-266794600D03*
X368676000Y-267794600D03*
X368676000Y-268794600D03*
X368676000Y-269794600D03*
X368676000Y-270794600D03*
X368676000Y-271794600D03*
X368676000Y-272794600D03*
X368676000Y-273794600D03*
X368676000Y-274794600D03*
X368676000Y-277794600D03*
X368676000Y-278794600D03*
X368676000Y-279794600D03*
X368676000Y-280794600D03*
X368676000Y-281794600D03*
X368676000Y-282794600D03*
X368676000Y-283794600D03*
X364876000Y-264794600D03*
X364876000Y-265794600D03*
X364876000Y-266794600D03*
X364876000Y-267794600D03*
X364876000Y-268794600D03*
X364876000Y-269794600D03*
X364876000Y-270794600D03*
X364876000Y-271794600D03*
X364876000Y-272794600D03*
X364876000Y-273794600D03*
X364876000Y-274794600D03*
X364876000Y-277794600D03*
X364876000Y-278794600D03*
X364876000Y-279794600D03*
X364876000Y-280794600D03*
X364876000Y-281794600D03*
X364876000Y-282794600D03*
X364876000Y-283794600D03*
%TD*%
D17*
%TO.C,C14*%
X146050000Y-272288000D03*
X146050000Y-275238000D03*
%TD*%
D14*
%TO.C,SW6*%
X173185000Y-143451000D03*
X177335000Y-143451000D03*
X173185000Y-145601000D03*
X177335000Y-145601000D03*
%TD*%
D19*
%TO.C,C2*%
X142214000Y-252984000D03*
X143764000Y-252984000D03*
%TD*%
D20*
%TO.C,R10*%
X171450000Y-149035000D03*
X171450000Y-150685000D03*
%TD*%
D13*
%TO.C,R43*%
X189929000Y-265938000D03*
X191579000Y-265938000D03*
%TD*%
D23*
%TO.C,D7*%
X174472500Y-149098000D03*
X176047500Y-149098000D03*
%TD*%
D24*
%TO.C,D1*%
X119380000Y-270357500D03*
X119380000Y-271932500D03*
%TD*%
D18*
%TO.C,J7*%
X297556000Y-264794600D03*
X297556000Y-265794600D03*
X297556000Y-266794600D03*
X297556000Y-267794600D03*
X297556000Y-268794600D03*
X297556000Y-269794600D03*
X297556000Y-270794600D03*
X297556000Y-271794600D03*
X297556000Y-272794600D03*
X297556000Y-273794600D03*
X297556000Y-274794600D03*
X297556000Y-277794600D03*
X297556000Y-278794600D03*
X297556000Y-279794600D03*
X297556000Y-280794600D03*
X297556000Y-281794600D03*
X297556000Y-282794600D03*
X297556000Y-283794600D03*
X293756000Y-264794600D03*
X293756000Y-265794600D03*
X293756000Y-266794600D03*
X293756000Y-267794600D03*
X293756000Y-268794600D03*
X293756000Y-269794600D03*
X293756000Y-270794600D03*
X293756000Y-271794600D03*
X293756000Y-272794600D03*
X293756000Y-273794600D03*
X293756000Y-274794600D03*
X293756000Y-277794600D03*
X293756000Y-278794600D03*
X293756000Y-279794600D03*
X293756000Y-280794600D03*
X293756000Y-281794600D03*
X293756000Y-282794600D03*
X293756000Y-283794600D03*
%TD*%
D12*
%TO.C,R35*%
X207581000Y-169418000D03*
X205931000Y-169418000D03*
%TD*%
%TO.C,R44*%
X191579000Y-268224000D03*
X189929000Y-268224000D03*
%TD*%
D13*
%TO.C,R3*%
X163767000Y-162306000D03*
X165417000Y-162306000D03*
%TD*%
D11*
%TO.C,C16*%
X155702000Y-271005000D03*
X155702000Y-272555000D03*
%TD*%
D23*
%TO.C,D4*%
X151612500Y-149098000D03*
X153187500Y-149098000D03*
%TD*%
D18*
%TO.C,J6*%
X404236000Y-264794600D03*
X404236000Y-265794600D03*
X404236000Y-266794600D03*
X404236000Y-267794600D03*
X404236000Y-268794600D03*
X404236000Y-269794600D03*
X404236000Y-270794600D03*
X404236000Y-271794600D03*
X404236000Y-272794600D03*
X404236000Y-273794600D03*
X404236000Y-274794600D03*
X404236000Y-277794600D03*
X404236000Y-278794600D03*
X404236000Y-279794600D03*
X404236000Y-280794600D03*
X404236000Y-281794600D03*
X404236000Y-282794600D03*
X404236000Y-283794600D03*
X400436000Y-264794600D03*
X400436000Y-265794600D03*
X400436000Y-266794600D03*
X400436000Y-267794600D03*
X400436000Y-268794600D03*
X400436000Y-269794600D03*
X400436000Y-270794600D03*
X400436000Y-271794600D03*
X400436000Y-272794600D03*
X400436000Y-273794600D03*
X400436000Y-274794600D03*
X400436000Y-277794600D03*
X400436000Y-278794600D03*
X400436000Y-279794600D03*
X400436000Y-280794600D03*
X400436000Y-281794600D03*
X400436000Y-282794600D03*
X400436000Y-283794600D03*
%TD*%
D20*
%TO.C,R8*%
X163830000Y-149035000D03*
X163830000Y-150685000D03*
%TD*%
D12*
%TO.C,R38*%
X207581000Y-177800000D03*
X205931000Y-177800000D03*
%TD*%
D16*
%TO.C,R21*%
X159766000Y-247967000D03*
X159766000Y-246317000D03*
%TD*%
D11*
%TO.C,C9*%
X185166000Y-271005000D03*
X185166000Y-272555000D03*
%TD*%
D21*
%TO.C,C6*%
X194831000Y-280162000D03*
X193281000Y-280162000D03*
%TD*%
D14*
%TO.C,SW2*%
X146855000Y-143451000D03*
X142705000Y-143451000D03*
X146855000Y-145601000D03*
X142705000Y-145601000D03*
%TD*%
D20*
%TO.C,R7*%
X156210000Y-149035000D03*
X156210000Y-150685000D03*
%TD*%
D12*
%TO.C,R27*%
X207581000Y-200152000D03*
X205931000Y-200152000D03*
%TD*%
%TO.C,R33*%
X207581000Y-183388000D03*
X205931000Y-183388000D03*
%TD*%
D23*
%TO.C,D2*%
X136372500Y-149098000D03*
X137947500Y-149098000D03*
%TD*%
D21*
%TO.C,C5*%
X189751000Y-282194000D03*
X188201000Y-282194000D03*
%TD*%
D16*
%TO.C,R1*%
X160528000Y-256825500D03*
X160528000Y-255175500D03*
%TD*%
D12*
%TO.C,R46*%
X165417000Y-284226000D03*
X163767000Y-284226000D03*
%TD*%
%TO.C,R50*%
X162115000Y-268224000D03*
X160465000Y-268224000D03*
%TD*%
D13*
%TO.C,R13*%
X163767000Y-165354000D03*
X165417000Y-165354000D03*
%TD*%
D20*
%TO.C,R4*%
X133350000Y-149035000D03*
X133350000Y-150685000D03*
%TD*%
D16*
%TO.C,R20*%
X156464000Y-247967000D03*
X156464000Y-246317000D03*
%TD*%
D12*
%TO.C,R28*%
X207581000Y-197358000D03*
X205931000Y-197358000D03*
%TD*%
D18*
%TO.C,J9*%
X333116000Y-264794600D03*
X333116000Y-265794600D03*
X333116000Y-266794600D03*
X333116000Y-267794600D03*
X333116000Y-268794600D03*
X333116000Y-269794600D03*
X333116000Y-270794600D03*
X333116000Y-271794600D03*
X333116000Y-272794600D03*
X333116000Y-273794600D03*
X333116000Y-274794600D03*
X333116000Y-277794600D03*
X333116000Y-278794600D03*
X333116000Y-279794600D03*
X333116000Y-280794600D03*
X333116000Y-281794600D03*
X333116000Y-282794600D03*
X333116000Y-283794600D03*
X329316000Y-264794600D03*
X329316000Y-265794600D03*
X329316000Y-266794600D03*
X329316000Y-267794600D03*
X329316000Y-268794600D03*
X329316000Y-269794600D03*
X329316000Y-270794600D03*
X329316000Y-271794600D03*
X329316000Y-272794600D03*
X329316000Y-273794600D03*
X329316000Y-274794600D03*
X329316000Y-277794600D03*
X329316000Y-278794600D03*
X329316000Y-279794600D03*
X329316000Y-280794600D03*
X329316000Y-281794600D03*
X329316000Y-282794600D03*
X329316000Y-283794600D03*
%TD*%
D16*
%TO.C,R19*%
X153162000Y-247967000D03*
X153162000Y-246317000D03*
%TD*%
D12*
%TO.C,R41*%
X194881000Y-282194000D03*
X193231000Y-282194000D03*
%TD*%
D14*
%TO.C,SW5*%
X169715000Y-143451000D03*
X165565000Y-143451000D03*
X165565000Y-145601000D03*
X169715000Y-145601000D03*
%TD*%
D13*
%TO.C,R18*%
X216853000Y-161290000D03*
X218503000Y-161290000D03*
%TD*%
D22*
%TO.C,D11*%
X151892000Y-270891000D03*
X151892000Y-274891000D03*
%TD*%
D16*
%TO.C,R15*%
X149860000Y-247967000D03*
X149860000Y-246317000D03*
%TD*%
D13*
%TO.C,R9*%
X165545000Y-184404000D03*
X167195000Y-184404000D03*
%TD*%
D23*
%TO.C,D9*%
X189712500Y-149098000D03*
X191287500Y-149098000D03*
%TD*%
D25*
%TO.C,L1*%
X181828000Y-265176000D03*
X177328000Y-265176000D03*
%TD*%
%TO.C,L2*%
X152364000Y-265176000D03*
X147864000Y-265176000D03*
%TD*%
D20*
%TO.C,R14*%
X186690000Y-149035000D03*
X186690000Y-150685000D03*
%TD*%
D11*
%TO.C,C11*%
X193548000Y-268719000D03*
X193548000Y-270269000D03*
%TD*%
D23*
%TO.C,D6*%
X166852500Y-149098000D03*
X168427500Y-149098000D03*
%TD*%
D14*
%TO.C,SW4*%
X162095000Y-143451000D03*
X157945000Y-143451000D03*
X162095000Y-145601000D03*
X157945000Y-145601000D03*
%TD*%
D12*
%TO.C,R30*%
X207581000Y-191770000D03*
X205931000Y-191770000D03*
%TD*%
D14*
%TO.C,SW3*%
X154475000Y-143451000D03*
X150325000Y-143451000D03*
X154475000Y-145601000D03*
X150325000Y-145601000D03*
%TD*%
D15*
%TO.C,U8*%
X188595000Y-278036000D03*
X189865000Y-278036000D03*
X191135000Y-278036000D03*
X192405000Y-278036000D03*
X192405000Y-272636000D03*
X191135000Y-272636000D03*
X189865000Y-272636000D03*
X188595000Y-272636000D03*
%TD*%
D13*
%TO.C,R12*%
X165545000Y-181356000D03*
X167195000Y-181356000D03*
%TD*%
M02*
